          <svg xmlns="http://www.w3.org/2000/svg" width="93" height="32" viewBox="0 0 93 32">
  <g id="_5toPrwiHorizontal" data-name="5toPrwiHorizontal" transform="translate(0 0)">
    <g id="Group_273" data-name="Group 273" transform="translate(2.237 2.216)">
      <g id="Group_165" data-name="Group 165" transform="translate(32.763 2.216)">
        <g id="Group_163" data-name="Group 163" transform="translate(0.245)">
          <path id="Path_53" data-name="Path 53" d="M422.715,451.55v-.423a.652.652,0,0,0,.423-.131c.309-.342.239-2.069.238-2.508l-.013-5.079a9.636,9.636,0,0,0-.152-2.246l-4.591.012a10.717,10.717,0,0,0-.108,2.23l.013,5.1c0,.423-.059,2.166.251,2.491a.59.59,0,0,0,.424.145v.423l-3.289.008v-.423a.654.654,0,0,0,.423-.131c.308-.342.239-2.068.237-2.507l-.013-5.1a6.865,6.865,0,0,0-.234-2.475.518.518,0,0,0-.44-.178v-.423l10.094-.026v.407a.528.528,0,0,0-.407.148c-.325.343-.255,2.068-.254,2.508l.013,5.1c0,.44-.059,2.182.25,2.507a.586.586,0,0,0,.424.145v.423Z" transform="translate(-415.881 -440.187)"/>
          <path id="Path_54" data-name="Path 54" d="M461.2,451.462l-7.815.02v-.423a.573.573,0,0,0,.423-.131c.325-.327.239-2.036.238-2.459l-.013-5.21c0-.407.075-2.133-.251-2.458a.571.571,0,0,0-.423-.129v-.423l7.7-.02.232,1.758-.472,0c-.312-1.091-2.233-1-3.129-1l-.618,0c-.391,0-.733,0-.927.393a9.265,9.265,0,0,0-.157,2.362l0,1.547c.261,0,2.588-.023,2.588-.023a.855.855,0,0,0,.8-.784h.472l.006,2.328h-.472a.646.646,0,0,0-.082-.358c-.36-.537-2.753-.432-3.306-.431l.007,2.7c.006,2.214.51,1.936,2.512,1.914.895,0,2.41.059,2.815-.886l.472.194Z" transform="translate(-440.263 -440.135)"/>
          <path id="Path_55" data-name="Path 55" d="M495.9,440.725a8.916,8.916,0,0,0-.2,2.736l.021,7.994-1.075,0-7.479-8.853.015,5.7c0,.44-.059,2.182.267,2.523a.516.516,0,0,0,.407.129v.423l-2.409.006.015-.423a.516.516,0,0,0,.407-.131c.325-.342.239-2.084.237-2.524l-.013-5.063a7,7,0,0,0-.234-2.491.462.462,0,0,0-.44-.177v-.423l2.117-.006,7.1,8.464-.014-5.388a6.994,6.994,0,0,0-.234-2.49.491.491,0,0,0-.44-.178v-.423l2.409-.007v.423A.514.514,0,0,0,495.9,440.725Z" transform="translate(-461.127 -440.065)"/>
          <path id="Path_56" data-name="Path 56" d="M532.394,441.86c-.377-1.106-2.282-.987-3.21-.985,0,0-.1.1-.1.147a7.026,7.026,0,0,0-.109,1.758l.015,5.666c0,.407-.06,1.921.25,2.263a.508.508,0,0,0,.424.145v.423l-3.289.008v-.423a.557.557,0,0,0,.439-.147,6.915,6.915,0,0,0,.222-2.475l-.014-5.454a6.549,6.549,0,0,0-.135-1.888h-.342c-.944-.014-2.588-.042-2.944.984h-.374l.24-1.824,9.052-.023.249,1.823Z" transform="translate(-485.729 -440.01)"/>
          <path id="Path_57" data-name="Path 57" d="M564.9,451.194l-7.815.02v-.423a.572.572,0,0,0,.423-.131c.325-.326.239-2.035.238-2.459l-.013-5.21c0-.407.076-2.133-.251-2.458a.574.574,0,0,0-.423-.129v-.423l7.7-.02.233,1.757h-.472c-.312-1.09-2.233-1-3.129-1l-.618,0c-.391,0-.732,0-.927.393a9.246,9.246,0,0,0-.156,2.361l0,1.547c.261,0,2.588-.023,2.588-.023a.856.856,0,0,0,.8-.784l.472,0,.006,2.329h-.472a.65.65,0,0,0-.082-.358c-.36-.536-2.753-.432-3.306-.431l.007,2.7c.005,2.214.51,1.936,2.512,1.915.9,0,2.41.059,2.814-.886l.472.194Z" transform="translate(-507.738 -439.961)"/>
        </g>
        <g id="Group_164" data-name="Group 164" transform="translate(0 15.755)">
          <path id="Path_58" data-name="Path 58" d="M420.761,487.051c-.235-.6-1.351-.616-1.879-.584l-.2.011a3.069,3.069,0,0,0-.119,1.187l.009,3.491c0,.274-.037,1.268.166,1.481a.359.359,0,0,0,.285.09v.264l-1.827,0v-.254a.359.359,0,0,0,.284-.092c.2-.224.159-1.208.158-1.482l-.009-3.491a3.147,3.147,0,0,0-.115-1.207h-.223c-.518,0-1.634-.006-1.856.6l-.254-.009.15-.994,5.52-.015.155.994Z" transform="translate(-415.18 -485.844)"/>
          <path id="Path_59" data-name="Path 59" d="M445.545,492.866a3.578,3.578,0,1,1,3.562-3.551A3.512,3.512,0,0,1,445.545,492.866Zm-.21-6.616a2.328,2.328,0,0,0-2.317,2.543c0,1.573,1.013,3.569,2.81,3.575a2.329,2.329,0,0,0,2.287-2.583C448.11,488.211,447.12,486.245,445.334,486.25Z" transform="translate(-432.68 -485.619)"/>
          <path id="Path_60" data-name="Path 60" d="M493.821,492.8l.009-.264a.46.46,0,0,0,.264-.062c.223-.2.17-1.269.169-1.543l-.009-3.451a3.149,3.149,0,0,0-.115-1.207l-2.993.008a3.125,3.125,0,0,0-.118,1.2l.009,3.47c0,.264-.048,1.33.187,1.522a.4.4,0,0,0,.264.07v.264l-1.827,0,.01-.264a.462.462,0,0,0,.264-.062c.222-.2.169-1.269.169-1.543l-.008-3.186c0-.274.037-1.3-.156-1.5a.332.332,0,0,0-.295-.111v-.264l5.987-.016v.254a.357.357,0,0,0-.263.082c-.233.193-.179,1.258-.178,1.522l.008,3.206c0,.264-.048,1.33.187,1.532a.4.4,0,0,0,.264.07v.264Z" transform="translate(-463.631 -485.717)"/>
          <path id="Path_61" data-name="Path 61" d="M521.238,489.782a4.822,4.822,0,0,1-.772-.049l0,1.208a3.861,3.861,0,0,0,.156,1.451.382.382,0,0,0,.295.091v.264l-1.827,0V492.5a.387.387,0,0,0,.294-.1,5.454,5.454,0,0,0,.148-1.827L519.528,488a5.376,5.376,0,0,0-.157-1.816.356.356,0,0,0-.295-.1v-.264l1.989,0c1.248,0,2.832.215,2.836,1.809C523.9,489.034,522.486,489.779,521.238,489.782Zm-.152-3.612c-.3,0-.629.133-.628.479l0,2.618a4.524,4.524,0,0,0,.9.14,1.329,1.329,0,0,0,1.528-1.526A1.589,1.589,0,0,0,521.086,486.17Z" transform="translate(-482.783 -485.687)"/>
          <path id="Path_62" data-name="Path 62" d="M550.254,492.473l-2.577.007v-.345a5.15,5.15,0,0,0,1.848-3.415,2.382,2.382,0,1,0-4.708,0,5.147,5.147,0,0,0,1.866,3.415v.345l-2.578.007-.286-1.044.243-.122c.194.344.224.436.772.434l.934,0a4.526,4.526,0,0,1-1.906-3.039,3.309,3.309,0,0,1,6.616-.017,4.529,4.529,0,0,1-1.89,3.049l.934,0c.548,0,.578-.093.77-.438l.244.121Z" transform="translate(-498.882 -485.449)"/>
          <path id="Path_63" data-name="Path 63" d="M575.288,492.605l.01-.264a.456.456,0,0,0,.264-.062c.223-.2.17-1.269.169-1.543l-.008-3.186c0-.274.037-1.3-.156-1.5a.334.334,0,0,0-.295-.111v-.264l1.827,0v.264a.516.516,0,0,0-.274.062c-.223.2-.169,1.268-.168,1.532l.008,3.217c0,.264-.048,1.33.187,1.522a.4.4,0,0,0,.264.07v.264Z" transform="translate(-519.347 -485.593)"/>
        </g>
      </g>
      <g id="Group_271" data-name="Group 271" transform="translate(0)">
        <circle id="Ellipse_51" data-name="Ellipse 51" cx="2.351" cy="2.351" r="2.351" transform="translate(0 23.542)" fill="#3a55a6"/>
        <g id="Group_167" data-name="Group 167" transform="translate(1.288)">
          <g id="Group_166" data-name="Group 166">
            <path id="Path_64" data-name="Path 64" d="M370,275.659c3.56.538,6.651,2.553,7.4,6.106h5.878a9.534,9.534,0,0,0-6.848-8.486,16.114,16.114,0,0,0-3.856-.714c-1.142-.1-2.332-.1-3.522-.1l1.428-6.759h12l1.333-3.9H368.479l-2.618,13.661A20.129,20.129,0,0,1,370,275.659Z" transform="translate(-365.861 -261.807)" fill="#3a55a6"/>
          </g>
        </g>
      </g>
    </g>
    <rect id="Rectangle_125" data-name="Rectangle 125" width="93" height="32" transform="translate(0 0)" fill="none"/>
  </g>
</svg>