<svg xmlns="http://www.w3.org/2000/svg" width="133" height="144" viewBox="0 0 133 144">
  <g id="_5toPrwiLogo" data-name="5toPrwiLogo" transform="translate(-4083 -11974.305)">
    <rect id="Rectangle_59" data-name="Rectangle 59" width="133" height="144" transform="translate(4083 11974.305)" fill="none"/>
    <g id="Group_168" data-name="Group 168" transform="translate(4086.356 11977.919)">
      <g id="Group_165" data-name="Group 165" transform="translate(33.138 99.642)">
        <g id="Group_163" data-name="Group 163" transform="translate(0.392)">
          <path id="Path_53" data-name="Path 53" d="M426.824,458.308l0-.678a1.044,1.044,0,0,0,.677-.21c.494-.548.383-3.312.381-4.016l-.021-8.133a15.427,15.427,0,0,0-.244-3.6l-7.351.02a17.157,17.157,0,0,0-.173,3.571l.021,8.159c0,.678-.1,3.468.4,3.988a.944.944,0,0,0,.679.232l0,.678-5.266.013,0-.678a1.046,1.046,0,0,0,.677-.21c.494-.548.382-3.311.38-4.015l-.021-8.159c0-.7.1-3.441-.375-3.962a.829.829,0,0,0-.7-.285l0-.677,16.162-.042,0,.652a.846.846,0,0,0-.651.237c-.52.549-.408,3.311-.407,4.015l.021,8.159c0,.7-.1,3.494.4,4.014a.939.939,0,0,0,.678.233l0,.678Z" transform="translate(-415.881 -440.114)"/>
          <path id="Path_54" data-name="Path 54" d="M465.912,458.215l-12.512.032,0-.677a.918.918,0,0,0,.677-.21c.52-.523.383-3.26.381-3.937l-.021-8.341c0-.652.121-3.415-.4-3.935a.915.915,0,0,0-.677-.207l0-.678,12.33-.032.372,2.814-.756,0c-.5-1.746-3.575-1.607-5.009-1.6l-.99,0c-.626,0-1.173,0-1.484.629-.312.366-.252,3.233-.251,3.781l.007,2.476c.417,0,4.144-.037,4.144-.037a1.37,1.37,0,0,0,1.274-1.255l.756,0,.01,3.728-.756,0a1.032,1.032,0,0,0-.132-.573c-.576-.86-4.407-.692-5.293-.69l.011,4.326c.009,3.545.817,3.1,4.023,3.066,1.433,0,3.858.095,4.506-1.42l.756.311Z" transform="translate(-432.395 -440.079)"/>
          <path id="Path_55" data-name="Path 55" d="M502.207,441.087c-.441.6-.329,3.624-.327,4.38l.033,12.8-1.721,0L488.217,444.1l.023,9.123c0,.7-.1,3.493.427,4.039a.825.825,0,0,0,.652.207l0,.678-3.858.01.024-.678a.825.825,0,0,0,.652-.21c.52-.548.382-3.337.38-4.041l-.021-8.107c0-.7.1-3.441-.375-3.988a.739.739,0,0,0-.7-.284l0-.678,3.389-.009,11.374,13.551-.022-8.628c0-.7.1-3.441-.375-3.987a.786.786,0,0,0-.7-.285l0-.678,3.858-.011,0,.678A.822.822,0,0,0,502.207,441.087Z" transform="translate(-446.525 -440.032)"/>
          <path id="Path_56" data-name="Path 56" d="M537.9,442.956c-.6-1.771-3.653-1.581-5.139-1.577,0,0-.156.157-.156.235a11.241,11.241,0,0,0-.175,2.816l.024,9.071c0,.651-.1,3.076.4,3.623a.813.813,0,0,0,.678.233l0,.678-5.266.013,0-.678a.893.893,0,0,0,.7-.236c.469-.576.357-3.26.355-3.963l-.022-8.733a10.494,10.494,0,0,0-.216-3.023l-.548,0c-1.512-.022-4.144-.068-4.714,1.576l-.6,0,.384-2.921,14.493-.037.4,2.918Z" transform="translate(-463.188 -439.994)"/>
          <path id="Path_57" data-name="Path 57" d="M569.611,457.947l-12.512.032,0-.678a.916.916,0,0,0,.677-.21c.52-.522.383-3.259.381-3.937l-.021-8.341c0-.651.121-3.415-.4-3.935a.92.92,0,0,0-.678-.207l0-.678,12.329-.031.372,2.814-.756,0c-.5-1.745-3.576-1.606-5.01-1.6l-.99,0c-.625,0-1.173,0-1.484.629-.311.366-.252,3.233-.25,3.78l.007,2.476c.417,0,4.144-.036,4.144-.036a1.371,1.371,0,0,0,1.274-1.255l.756,0,.01,3.728-.756,0a1.042,1.042,0,0,0-.131-.574c-.577-.859-4.407-.692-5.294-.69l.011,4.327c.009,3.545.816,3.1,4.022,3.066,1.433,0,3.859.095,4.506-1.419l.756.31Z" transform="translate(-478.094 -439.961)"/>
        </g>
        <g id="Group_164" data-name="Group 164" transform="translate(0 25.442)">
          <path id="Path_58" data-name="Path 58" d="M424.116,487.649c-.376-.958-2.163-.986-3.008-.935l-.325.017a4.92,4.92,0,0,0-.19,1.9l.015,5.589c0,.439-.059,2.031.266,2.371a.576.576,0,0,0,.456.145v.422l-2.925.007v-.406a.575.575,0,0,0,.455-.147c.323-.359.255-1.934.253-2.373l-.015-5.59a5.036,5.036,0,0,0-.184-1.932h-.357c-.829,0-2.616-.009-2.971.966l-.407-.015.24-1.592,8.839-.023.248,1.592Z" transform="translate(-415.18 -485.716)"/>
          <path id="Path_59" data-name="Path 59" d="M447.631,497.167a5.729,5.729,0,1,1,5.7-5.686A5.623,5.623,0,0,1,447.631,497.167Zm-.337-10.593c-2.356.007-3.715,1.846-3.709,4.072.006,2.519,1.623,5.714,4.5,5.723,2.388-.006,3.667-1.91,3.662-4.136C451.739,489.714,450.153,486.566,447.294,486.573Z" transform="translate(-427.032 -485.564)"/>
          <path id="Path_60" data-name="Path 60" d="M496.332,496.965l.015-.422a.736.736,0,0,0,.422-.1c.357-.326.271-2.032.27-2.47l-.014-5.525a5.039,5.039,0,0,0-.184-1.932l-4.793.012a5,5,0,0,0-.19,1.917l.015,5.557c0,.422-.076,2.129.3,2.437a.641.641,0,0,0,.422.112v.422l-2.925.008.016-.422a.739.739,0,0,0,.422-.1c.356-.326.271-2.032.27-2.47l-.013-5.1c0-.439.059-2.079-.25-2.4a.531.531,0,0,0-.472-.177v-.422l9.586-.025v.406a.571.571,0,0,0-.422.131c-.373.309-.287,2.015-.286,2.437l.013,5.134c0,.422-.077,2.129.3,2.453a.64.64,0,0,0,.422.112v.422Z" transform="translate(-447.995 -485.631)"/>
          <path id="Path_61" data-name="Path 61" d="M522.537,492.167a7.713,7.713,0,0,1-1.235-.079l0,1.934a6.184,6.184,0,0,0,.25,2.323.611.611,0,0,0,.472.145v.422l-2.925.007v-.406a.621.621,0,0,0,.471-.163c.324-.407.238-2.438.236-2.926l-.011-4.11c0-.471.075-2.535-.251-2.908a.569.569,0,0,0-.472-.161v-.422l3.185-.008c2-.006,4.534.345,4.541,2.9C526.807,490.969,524.536,492.162,522.537,492.167Zm-.243-5.784c-.487,0-1.007.214-1.006.766l-.005,4.191a7.261,7.261,0,0,0,1.446.224,2.128,2.128,0,0,0,2.447-2.444A2.544,2.544,0,0,0,522.295,486.383Z" transform="translate(-460.967 -485.61)"/>
          <path id="Path_62" data-name="Path 62" d="M554.123,496.7l-4.127.011v-.552a8.247,8.247,0,0,0,2.959-5.467c-.007-2.405-1.718-4.4-3.781-4.393s-3.764,2.008-3.758,4.4a8.241,8.241,0,0,0,2.988,5.468v.552l-4.127.011-.459-1.672.389-.2c.31.551.359.7,1.237.695l1.495,0c-1.857-1.473-3.048-3.42-3.052-4.866a5.3,5.3,0,0,1,10.594-.027c0,1.446-1.177,3.4-3.026,4.882l1.495,0c.877,0,.925-.148,1.233-.7l.39.193Z" transform="translate(-471.87 -485.449)"/>
          <path id="Path_63" data-name="Path 63" d="M575.3,496.774l.016-.422a.733.733,0,0,0,.422-.1c.356-.326.271-2.032.27-2.47l-.013-5.1c0-.439.059-2.079-.25-2.4a.534.534,0,0,0-.472-.178v-.422l2.925-.007v.422a.829.829,0,0,0-.438.1c-.357.326-.271,2.031-.27,2.454l.013,5.15c0,.422-.077,2.129.3,2.437a.636.636,0,0,0,.422.112v.422Z" transform="translate(-485.731 -485.546)"/>
        </g>
      </g>
      <circle id="Ellipse_51" data-name="Ellipse 51" cx="10.14" cy="10.14" r="10.14" transform="translate(0 102.134)" fill="#3a55a6"/>
      <g id="Group_167" data-name="Group 167" transform="translate(5.553 0)">
        <g id="Group_166" data-name="Group 166">
          <path id="Path_64" data-name="Path 64" d="M383.725,321.558c15.357,2.321,28.689,11.013,31.906,26.339h25.355c-.559-17.136-13.28-31.386-29.541-36.605a69.509,69.509,0,0,0-16.632-3.08c-4.927-.411-10.061-.411-15.194-.411l6.16-29.157h51.743l5.75-16.837H377.154l-11.293,58.93A86.834,86.834,0,0,1,383.725,321.558Z" transform="translate(-365.861 -261.807)" fill="#3a55a6"/>
        </g>
      </g>
    </g>
  </g>
</svg>
