<svg xmlns="http://www.w3.org/2000/svg" width="256" height="48" viewBox="0 0 256 48">
  <g id="audiogram" transform="translate(-729 -3086)">
    <g id="Rectangle_528" data-name="Rectangle 528" transform="translate(729 3105)" fill="#fff" stroke="#a6a6a6" stroke-width="1">
      <rect width="4" height="10" rx="2" stroke="none"/>
      <rect x="0.5" y="0.5" width="3" height="9" rx="1.5" fill="none"/>
    </g>
    <g id="Rectangle_529" data-name="Rectangle 529" transform="translate(759 3101)" fill="#fff" stroke="#a6a6a6" stroke-width="1">
      <rect width="4" height="19" rx="2" stroke="none"/>
      <rect x="0.5" y="0.5" width="3" height="18" rx="1.5" fill="none"/>
    </g>
    <g id="Rectangle_543" data-name="Rectangle 543" transform="translate(837 3101)" fill="#fff" stroke="#a6a6a6" stroke-width="1">
      <rect width="4" height="19" rx="2" stroke="none"/>
      <rect x="0.5" y="0.5" width="3" height="18" rx="1.5" fill="none"/>
    </g>
    <g id="Rectangle_530" data-name="Rectangle 530" transform="translate(741 3102)" fill="#fff" stroke="#a6a6a6" stroke-width="1">
      <rect width="4" height="16" rx="2" stroke="none"/>
      <rect x="0.5" y="0.5" width="3" height="15" rx="1.5" fill="none"/>
    </g>
    <g id="Rectangle_531" data-name="Rectangle 531" transform="translate(735 3101)" fill="#fff" stroke="#a6a6a6" stroke-width="1">
      <rect width="4" height="19" rx="2" stroke="none"/>
      <rect x="0.5" y="0.5" width="3" height="18" rx="1.5" fill="none"/>
    </g>
    <g id="Rectangle_532" data-name="Rectangle 532" transform="translate(783 3098)" fill="#fff" stroke="#a6a6a6" stroke-width="1">
      <rect width="4" height="24" rx="2" stroke="none"/>
      <rect x="0.5" y="0.5" width="3" height="23" rx="1.5" fill="none"/>
    </g>
    <g id="Rectangle_533" data-name="Rectangle 533" transform="translate(753 3093)" fill="#fff" stroke="#a6a6a6" stroke-width="1">
      <rect width="4" height="34" rx="2" stroke="none"/>
      <rect x="0.5" y="0.5" width="3" height="33" rx="1.5" fill="none"/>
    </g>
    <g id="Rectangle_534" data-name="Rectangle 534" transform="translate(771 3102)" fill="#fff" stroke="#a6a6a6" stroke-width="1">
      <rect width="4" height="16" rx="2" stroke="none"/>
      <rect x="0.5" y="0.5" width="3" height="15" rx="1.5" fill="none"/>
    </g>
    <g id="Rectangle_548" data-name="Rectangle 548" transform="translate(855 3100)" fill="#fff" stroke="#a6a6a6" stroke-width="1">
      <rect width="4" height="21" rx="2" stroke="none"/>
      <rect x="0.5" y="0.5" width="3" height="20" rx="1.5" fill="none"/>
    </g>
    <g id="Rectangle_535" data-name="Rectangle 535" transform="translate(789 3096)" fill="#fff" stroke="#a6a6a6" stroke-width="1">
      <rect width="4" height="28" rx="2" stroke="none"/>
      <rect x="0.5" y="0.5" width="3" height="27" rx="1.5" fill="none"/>
    </g>
    <g id="Rectangle_544" data-name="Rectangle 544" transform="translate(849 3095)" fill="#fff" stroke="#a6a6a6" stroke-width="1">
      <rect width="4" height="31" rx="2" stroke="none"/>
      <rect x="0.5" y="0.5" width="3" height="30" rx="1.5" fill="none"/>
    </g>
    <g id="Rectangle_536" data-name="Rectangle 536" transform="translate(795 3089)" fill="#fff" stroke="#a6a6a6" stroke-width="1">
      <rect width="4" height="42" rx="2" stroke="none"/>
      <rect x="0.5" y="0.5" width="3" height="41" rx="1.5" fill="none"/>
    </g>
    <g id="Rectangle_549" data-name="Rectangle 549" transform="translate(861 3086)" fill="#fff" stroke="#a6a6a6" stroke-width="1">
      <rect width="4" height="48" rx="2" stroke="none"/>
      <rect x="0.5" y="0.5" width="3" height="47" rx="1.5" fill="none"/>
    </g>
    <g id="Rectangle_537" data-name="Rectangle 537" transform="translate(765 3093)" fill="#fff" stroke="#a6a6a6" stroke-width="1">
      <rect width="4" height="34" rx="2" stroke="none"/>
      <rect x="0.5" y="0.5" width="3" height="33" rx="1.5" fill="none"/>
    </g>
    <g id="Rectangle_538" data-name="Rectangle 538" transform="translate(807 3095)" fill="#fff" stroke="#a6a6a6" stroke-width="1">
      <rect width="4" height="30" rx="2" stroke="none"/>
      <rect x="0.5" y="0.5" width="3" height="29" rx="1.5" fill="none"/>
    </g>
    <g id="Rectangle_539" data-name="Rectangle 539" transform="translate(801 3097)" fill="#fff" stroke="#a6a6a6" stroke-width="1">
      <rect width="4" height="26" rx="2" stroke="none"/>
      <rect x="0.5" y="0.5" width="3" height="25" rx="1.5" fill="none"/>
    </g>
    <g id="Rectangle_545" data-name="Rectangle 545" transform="translate(831 3101)" fill="#fff" stroke="#a6a6a6" stroke-width="1">
      <rect width="4" height="19" rx="2" stroke="none"/>
      <rect x="0.5" y="0.5" width="3" height="18" rx="1.5" fill="none"/>
    </g>
    <g id="Rectangle_550" data-name="Rectangle 550" transform="translate(879 3093)" fill="#fff" stroke="#a6a6a6" stroke-width="1">
      <rect width="4" height="34" rx="2" stroke="none"/>
      <rect x="0.5" y="0.5" width="3" height="33" rx="1.5" fill="none"/>
    </g>
    <g id="Rectangle_551" data-name="Rectangle 551" transform="translate(897 3101)" fill="#fff" stroke="#a6a6a6" stroke-width="1">
      <rect width="4" height="19" rx="2" stroke="none"/>
      <rect x="0.5" y="0.5" width="3" height="18" rx="1.5" fill="none"/>
    </g>
    <g id="Rectangle_552" data-name="Rectangle 552" transform="translate(909 3093)" fill="#fff" stroke="#a6a6a6" stroke-width="1">
      <rect width="4" height="34" rx="2" stroke="none"/>
      <rect x="0.5" y="0.5" width="3" height="33" rx="1.5" fill="none"/>
    </g>
    <g id="Rectangle_553" data-name="Rectangle 553" transform="translate(921 3095)" fill="#fff" stroke="#a6a6a6" stroke-width="1">
      <rect width="4" height="30" rx="2" stroke="none"/>
      <rect x="0.5" y="0.5" width="3" height="29" rx="1.5" fill="none"/>
    </g>
    <g id="Rectangle_554" data-name="Rectangle 554" transform="translate(951 3100)" fill="#fff" stroke="#a6a6a6" stroke-width="1">
      <rect width="4" height="21" rx="2" stroke="none"/>
      <rect x="0.5" y="0.5" width="3" height="20" rx="1.5" fill="none"/>
    </g>
    <g id="Rectangle_567" data-name="Rectangle 567" transform="translate(969 3101)" fill="#fff" stroke="#a6a6a6" stroke-width="1">
      <rect width="4" height="19" rx="2" stroke="none"/>
      <rect x="0.5" y="0.5" width="3" height="18" rx="1.5" fill="none"/>
    </g>
    <g id="Rectangle_569" data-name="Rectangle 569" transform="translate(981 3102)" fill="#fff" stroke="#a6a6a6" stroke-width="1">
      <rect width="4" height="16" rx="2" stroke="none"/>
      <rect x="0.5" y="0.5" width="3" height="15" rx="1.5" fill="none"/>
    </g>
    <g id="Rectangle_568" data-name="Rectangle 568" transform="translate(975 3097)" fill="#fff" stroke="#a6a6a6" stroke-width="1">
      <rect width="4" height="26" rx="2" stroke="none"/>
      <rect x="0.5" y="0.5" width="3" height="25" rx="1.5" fill="none"/>
    </g>
    <g id="Rectangle_555" data-name="Rectangle 555" transform="translate(957 3097)" fill="#fff" stroke="#a6a6a6" stroke-width="1">
      <rect width="4" height="26" rx="2" stroke="none"/>
      <rect x="0.5" y="0.5" width="3" height="25" rx="1.5" fill="none"/>
    </g>
    <g id="Rectangle_566" data-name="Rectangle 566" transform="translate(963 3101)" fill="#fff" stroke="#a6a6a6" stroke-width="1">
      <rect width="4" height="19" rx="2" stroke="none"/>
      <rect x="0.5" y="0.5" width="3" height="18" rx="1.5" fill="none"/>
    </g>
    <g id="Rectangle_556" data-name="Rectangle 556" transform="translate(903 3097)" fill="#fff" stroke="#a6a6a6" stroke-width="1">
      <rect width="4" height="26" rx="2" stroke="none"/>
      <rect x="0.5" y="0.5" width="3" height="25" rx="1.5" fill="none"/>
    </g>
    <g id="Rectangle_557" data-name="Rectangle 557" transform="translate(927 3097)" fill="#fff" stroke="#a6a6a6" stroke-width="1">
      <rect width="4" height="26" rx="2" stroke="none"/>
      <rect x="0.5" y="0.5" width="3" height="25" rx="1.5" fill="none"/>
    </g>
    <g id="Rectangle_558" data-name="Rectangle 558" transform="translate(945 3101)" fill="#fff" stroke="#a6a6a6" stroke-width="1">
      <rect width="4" height="19" rx="2" stroke="none"/>
      <rect x="0.5" y="0.5" width="3" height="18" rx="1.5" fill="none"/>
    </g>
    <g id="Rectangle_559" data-name="Rectangle 559" transform="translate(939 3097)" fill="#fff" stroke="#a6a6a6" stroke-width="1">
      <rect width="4" height="26" rx="2" stroke="none"/>
      <rect x="0.5" y="0.5" width="3" height="25" rx="1.5" fill="none"/>
    </g>
    <g id="Rectangle_560" data-name="Rectangle 560" transform="translate(867 3101)" fill="#fff" stroke="#a6a6a6" stroke-width="1">
      <rect width="4" height="19" rx="2" stroke="none"/>
      <rect x="0.5" y="0.5" width="3" height="18" rx="1.5" fill="none"/>
    </g>
    <g id="Rectangle_540" data-name="Rectangle 540" transform="translate(813 3097)" fill="#fff" stroke="#a6a6a6" stroke-width="1">
      <rect width="4" height="26" rx="2" stroke="none"/>
      <rect x="0.5" y="0.5" width="3" height="25" rx="1.5" fill="none"/>
    </g>
    <g id="Rectangle_546" data-name="Rectangle 546" transform="translate(843 3097)" fill="#fff" stroke="#a6a6a6" stroke-width="1">
      <rect width="4" height="26" rx="2" stroke="none"/>
      <rect x="0.5" y="0.5" width="3" height="25" rx="1.5" fill="none"/>
    </g>
    <g id="Rectangle_561" data-name="Rectangle 561" transform="translate(873 3102)" fill="#fff" stroke="#a6a6a6" stroke-width="1">
      <rect width="4" height="16" rx="2" stroke="none"/>
      <rect x="0.5" y="0.5" width="3" height="15" rx="1.5" fill="none"/>
    </g>
    <g id="Rectangle_562" data-name="Rectangle 562" transform="translate(891 3100)" fill="#fff" stroke="#a6a6a6" stroke-width="1">
      <rect width="4" height="21" rx="2" stroke="none"/>
      <rect x="0.5" y="0.5" width="3" height="20" rx="1.5" fill="none"/>
    </g>
    <g id="Rectangle_563" data-name="Rectangle 563" transform="translate(915 3093)" fill="#fff" stroke="#a6a6a6" stroke-width="1">
      <rect width="4" height="34" rx="2" stroke="none"/>
      <rect x="0.5" y="0.5" width="3" height="33" rx="1.5" fill="none"/>
    </g>
    <g id="Rectangle_564" data-name="Rectangle 564" transform="translate(933 3100)" fill="#fff" stroke="#a6a6a6" stroke-width="1">
      <rect width="4" height="21" rx="2" stroke="none"/>
      <rect x="0.5" y="0.5" width="3" height="20" rx="1.5" fill="none"/>
    </g>
    <g id="Rectangle_565" data-name="Rectangle 565" transform="translate(885 3089)" fill="#fff" stroke="#a6a6a6" stroke-width="1">
      <rect width="4" height="42" rx="2" stroke="none"/>
      <rect x="0.5" y="0.5" width="3" height="41" rx="1.5" fill="none"/>
    </g>
    <g id="Rectangle_547" data-name="Rectangle 547" transform="translate(825 3099)" fill="#fff" stroke="#a6a6a6" stroke-width="1">
      <rect width="4" height="22" rx="2" stroke="none"/>
      <rect x="0.5" y="0.5" width="3" height="21" rx="1.5" fill="none"/>
    </g>
    <g id="Rectangle_527" data-name="Rectangle 527" transform="translate(747 3097)" fill="#fff" stroke="#a6a6a6" stroke-width="1">
      <rect width="4" height="26" rx="2" stroke="none"/>
      <rect x="0.5" y="0.5" width="3" height="25" rx="1.5" fill="none"/>
    </g>
    <g id="Rectangle_541" data-name="Rectangle 541" transform="translate(777 3097)" fill="#fff" stroke="#a6a6a6" stroke-width="1">
      <rect width="4" height="26" rx="2" stroke="none"/>
      <rect x="0.5" y="0.5" width="3" height="25" rx="1.5" fill="none"/>
    </g>
    <g id="Rectangle_542" data-name="Rectangle 542" transform="translate(819 3093)" fill="#fff" stroke="#a6a6a6" stroke-width="1">
      <rect width="4" height="34" rx="2" stroke="none"/>
      <rect x="0.5" y="0.5" width="3" height="33" rx="1.5" fill="none"/>
    </g>
  </g>
</svg>
