<svg xmlns="http://www.w3.org/2000/svg" width="21" height="21" viewBox="0 0 21 21">
  <path id="person_FILL1_wght400_GRAD0_opsz48" d="M18.5,19.095a4.721,4.721,0,0,1-3.544-1.42,5.026,5.026,0,0,1-1.378-3.652,5.026,5.026,0,0,1,1.378-3.652A4.721,4.721,0,0,1,18.5,8.95a4.721,4.721,0,0,1,3.544,1.42,5.026,5.026,0,0,1,1.378,3.652,5.026,5.026,0,0,1-1.378,3.652A4.721,4.721,0,0,1,18.5,19.095ZM8,29.95V26.771a3.8,3.8,0,0,1,.623-2.2,4.034,4.034,0,0,1,1.608-1.386,24.176,24.176,0,0,1,4.216-1.522,16.565,16.565,0,0,1,4.052-.507,15.87,15.87,0,0,1,4.036.524,27.4,27.4,0,0,1,4.2,1.5,3.984,3.984,0,0,1,1.641,1.386,3.8,3.8,0,0,1,.623,2.2V29.95Z" transform="translate(-8 -8.95)" fill="#262626"/>
</svg>
