<svg xmlns="http://www.w3.org/2000/svg" width="256" height="29" viewBox="0 0 256 29">
  <g id="ekloges2023Horizontal" transform="translate(3246 -10856)">
    <rect id="Rectangle_984" data-name="Rectangle 984" width="256" height="29" transform="translate(-3246 10856)" fill="none"/>
    <g id="Group_1093" data-name="Group 1093" transform="translate(-3244.313 10856)">
      <g id="Group_1091" data-name="Group 1091" transform="translate(0 0)">
        <g id="Group_1090" data-name="Group 1090">
          <g id="Group_1083" data-name="Group 1083" transform="translate(0 2.548)">
            <path id="Path_151" data-name="Path 151" d="M194.021,515.164H176.7v-.935a1.1,1.1,0,0,0,.8-.243c.658-.624.52-4.054.52-4.92V497.32c0-.831.139-4.262-.52-4.92a1.1,1.1,0,0,0-.8-.243v-.9h17.29l.451,4.054h-1.143c-.52-2.391-4.227-2.287-6.1-2.287h-.9c-1.386,0-2.46.069-2.98,1.49a45.745,45.745,0,0,0-.173,4.99v2.356h3.534c1.351,0,3.118-.173,3.153-1.906H190.9v5.475h-1.074c-.034-1.836-2.009-1.906-3.4-1.906h-3.291v4.955c0,5.128.762,4.608,5.544,4.608,2.252,0,4.574.242,5.509-2.252l1.143.416Z" transform="translate(-176.697 -491.084)" fill="#3b56a6"/>
            <path id="Path_152" data-name="Path 152" d="M307.416,515.164V514.3c.243-.035.658-.1.624-.416,0-1-6.826-9.494-7.172-9.979l-.52.416v4.92c0,.866-.1,3.985.45,4.678a1.035,1.035,0,0,0,.866.346v.9H293.9v-.9a1.037,1.037,0,0,0,.867-.346c.554-.693.45-3.811.45-4.678V497.182c0-.866.1-3.985-.45-4.678a1.037,1.037,0,0,0-.867-.346v-.9h7.761v.9a1.036,1.036,0,0,0-.866.346c-.554.693-.45,3.812-.45,4.678v4.989c.727-.762,8.212-8.35,8.558-9.147a.987.987,0,0,0,.139-.416.477.477,0,0,0-.624-.451v-.9h6.722v.9c-1.594.1-3.777,2.287-4.885,3.292l-6.237,5.648c2.841,3.43,5.752,6.826,8.524,10.325.866,1.109,2.114,2.772,3.673,2.841v.9Z" transform="translate(-265.665 -491.084)" fill="#3b56a6"/>
            <path id="Path_153" data-name="Path 153" d="M430.872,515.164V514.3c.45,0,.762-.208.762-.693a7.964,7.964,0,0,0-.52-1.8l-5.371-15.037L421,510.349a13.366,13.366,0,0,0-.832,3.187.648.648,0,0,0,.693.728v.9h-5.544l-.035-.935a1.187,1.187,0,0,0,.624-.139c.658-.624,2.183-4.573,2.53-5.475l6.86-17.359h4.123l6.271,17.359c.312.866,1.767,5.613,2.945,5.648v.9Z" transform="translate(-357.799 -491.084)" fill="#3b56a6"/>
            <path id="Path_154" data-name="Path 154" d="M558.765,514.862c-6.722,0-12.474-5.094-12.474-11.954,0-6.9,6.063-12.369,12.82-12.369,6.722,0,12.578,5.128,12.578,12.023C571.689,509.525,565.556,514.862,558.765,514.862Zm-.416-22.383c-4.851,0-6.791,3.4-6.791,7.831,0,4.747,2.148,12.716,8.073,12.716,4.4,0,6.791-3.638,6.791-7.727C566.422,500.586,564.239,492.478,558.349,492.478Z" transform="translate(-457.246 -490.538)" fill="#3b56a6"/>
            <path id="Path_155" data-name="Path 155" d="M708.8,496c-.208-3.119-4.262-2.98-6.237-2.98h-.277c-1.386,0-2.46.069-2.98,1.49a45.745,45.745,0,0,0-.173,4.99v9.563c0,.832-.139,4.331.52,4.955a1.1,1.1,0,0,0,.8.243v.9h-7.761v-.935a1.1,1.1,0,0,0,.8-.243c.658-.624.52-4.054.52-4.92V497.32c0-.831.139-4.262-.52-4.92a1.1,1.1,0,0,0-.8-.243v-.9h16.666l.554,4.747Z" transform="translate(-568.375 -491.084)" fill="#3b56a6"/>
            <path id="Path_156" data-name="Path 156" d="M815.429,515.164H798.1v-.935a1.1,1.1,0,0,0,.8-.243c.658-.624.52-4.054.52-4.92V497.32c0-.831.139-4.262-.52-4.92a1.1,1.1,0,0,0-.8-.243v-.9h17.29l.451,4.054H814.7c-.52-2.391-4.227-2.287-6.1-2.287h-.9c-1.386,0-2.46.069-2.98,1.49a45.745,45.745,0,0,0-.173,4.99v2.356h3.534c1.351,0,3.119-.173,3.153-1.906h1.074v5.475h-1.074c-.034-1.836-2.01-1.906-3.4-1.906h-3.292v4.955c0,5.128.762,4.608,5.544,4.608,2.252,0,4.574.242,5.509-2.252l1.143.416Z" transform="translate(-648.39 -491.084)" fill="#3b56a6"/>
            <path id="Path_157" data-name="Path 157" d="M928.442,515.164H909.559V514.09l9.043-11.053-8.7-10.706.659-1.074h17.844l.728,4.539h-1c-.832-2.807-4.3-2.391-6.652-2.391h-4.227l6.237,8.038-8.108,10.083c1.109.069,3.257.139,4.781.139s4.193-.069,5.267-.139c2.252-.138,2.668-.416,3.534-2.252l1.109.416Z" transform="translate(-732.992 -491.084)" fill="#3b56a6"/>
          </g>
          <g id="Group_1084" data-name="Group 1084" transform="translate(22.316)">
            <rect id="Rectangle_978" data-name="Rectangle 978" width="0.285" height="28.523" fill="#001423"/>
          </g>
          <g id="Group_1085" data-name="Group 1085" transform="translate(54.07)">
            <rect id="Rectangle_979" data-name="Rectangle 979" width="0.285" height="28.523" fill="#001423"/>
          </g>
          <g id="Group_1086" data-name="Group 1086" transform="translate(84.821)">
            <rect id="Rectangle_980" data-name="Rectangle 980" width="0.285" height="28.523" fill="#001423"/>
          </g>
          <g id="Group_1087" data-name="Group 1087" transform="translate(119.36)">
            <rect id="Rectangle_981" data-name="Rectangle 981" width="0.285" height="28.523" fill="#001423"/>
          </g>
          <g id="Group_1088" data-name="Group 1088" transform="translate(144.986)">
            <rect id="Rectangle_982" data-name="Rectangle 982" width="0.285" height="28.523" fill="#001423"/>
          </g>
          <g id="Group_1089" data-name="Group 1089" transform="translate(171.949)">
            <rect id="Rectangle_983" data-name="Rectangle 983" width="0.285" height="28.523" fill="#001423"/>
          </g>
        </g>
      </g>
      <g id="Group_1092" data-name="Group 1092" transform="translate(206.312 10.561)">
        <path id="Path_158" data-name="Path 158" d="M1043.787,550.579c-3.581-.047-7.186-.094-10.767,0v-1.147c2.387-1.966,7-6.718,7-9.948a2.739,2.739,0,0,0-2.926-3.043,5.238,5.238,0,0,0-2.621,1.24l-.773-1.1a8.49,8.49,0,0,1,5.079-1.849c2.388,0,4.775,1.4,4.775,4.026,0,3.043-2.855,5.664-4.962,7.537-.772.679-1.545,1.4-2.364,2.036h8.169Z" transform="translate(-1033.02 -534.662)" fill="#001423"/>
        <path id="Path_159" data-name="Path 159" d="M1081.523,550.614c-4.236,0-5.594-3.956-5.594-7.537,0-4.377,1.826-8.59,6.811-8.59,4.26,0,5.384,4.307,5.384,7.795C1088.124,546.354,1086.158,550.614,1081.523,550.614Zm.468-14.91c-2.738,0-2.738,5.711-2.738,7.537,0,2.224.14,6.062,3.183,6.062,2.5,0,2.364-5.688,2.364-7.373C1084.8,540.035,1084.73,535.7,1081.991,535.7Z" transform="translate(-1063.64 -534.487)" fill="#001423"/>
        <path id="Path_160" data-name="Path 160" d="M1131.075,550.579c-3.581-.047-7.186-.094-10.767,0v-1.147c2.387-1.966,7-6.718,7-9.948a2.739,2.739,0,0,0-2.926-3.043,5.24,5.24,0,0,0-2.621,1.24l-.772-1.1a8.489,8.489,0,0,1,5.079-1.849c2.387,0,4.775,1.4,4.775,4.026,0,3.043-2.856,5.664-4.962,7.537-.772.679-1.545,1.4-2.364,2.036h8.168Z" transform="translate(-1095.308 -534.662)" fill="#001423"/>
        <path id="Path_161" data-name="Path 161" d="M1168.967,550.766a4.053,4.053,0,0,1-2.645-.773l.866-1.521a3.855,3.855,0,0,0,2.247.936,3.208,3.208,0,0,0,3.16-3.464c0-2.5-1.967-3.16-4.1-3.183v-1.03c1.732-.258,3.628-1.311,3.628-3.277A1.974,1.974,0,0,0,1170,536.3a4.935,4.935,0,0,0-2.528,1.053l-.632-1.077a9.542,9.542,0,0,1,4.564-1.709c1.825,0,4.19.843,4.19,3.02,0,1.966-2.317,3.37-3.956,4h.164c2.271,0,4.283,1.147,4.283,3.628C1176.083,548.613,1171.963,550.766,1168.967,550.766Z" transform="translate(-1128.144 -534.545)" fill="#001423"/>
      </g>
    </g>
  </g>
</svg>
