<svg xmlns="http://www.w3.org/2000/svg" xmlns:xlink="http://www.w3.org/1999/xlink" width="191" height="29.999" viewBox="0 0 191 29.999">
  <defs>
    <clipPath id="clip-path">
      <rect id="Rectangle_712" data-name="Rectangle 712" width="191" height="16.231" fill="none"/>
    </clipPath>
  </defs>
  <g id="publishingPartner" transform="translate(-18406 10887.82)">
    <g id="Group_1136" data-name="Group 1136" transform="translate(18406 -10874.052)">
      <g id="Group_1131" data-name="Group 1131" clip-path="url(#clip-path)">
        <path id="Path_1512" data-name="Path 1512" d="M47.1,16.271H38.944v-.6h.437c.541,0,.859-.258.859-.915V1.835c0-.657-.318-.914-.859-.914h-.437v-.6H47.1V5.8h-.54V5.74c0-3.248-.985-4.722-2.789-4.722H42.431V7.637h.341c1.017,0,1.494-.974,1.494-3.03V4.546h.541v6.9h-.541v-.041c0-2.014-.456-3.055-1.494-3.055h-.341v7.222h1.256c1.784,0,2.871-1.738,2.871-4.7v-.062h.54Z" transform="translate(-19.301 -0.157)" fill="#1a1818"/>
        <path id="Path_1513" data-name="Path 1513" d="M27.629,16.271H22.843v-.6h.419c.537,0,.878-.258.878-.915V8.492H20.65v6.265c0,.66.339.915.878.915h.421v.6H17.162v-.6h.418c.54,0,.879-.258.879-.915V1.835c0-.657-.338-.914-.879-.914h-.418v-.6h4.787v.6h-.421c-.539,0-.878.257-.878.914v5.8h3.49v-5.8c0-.657-.341-.914-.878-.914h-.419v-.6h4.786v.6h-.418c-.539,0-.876.257-.876.914V14.757c0,.66.337.915.876.915h.418Z" transform="translate(-8.506 -0.157)" fill="#1a1818"/>
        <path id="Path_1514" data-name="Path 1514" d="M8.394,5.84H7.857V5.781c0-2.569-.974-4.763-2.113-4.763h-.48V14.757c0,.66.341.915.879.915h.5v.6H1.718v-.6H2.2c.538,0,.875-.258.875-.915V1.018H2.652C1.514,1.018.54,3.074.54,5.781V5.84H0V.317H8.394Z" transform="translate(0 -0.157)" fill="#1a1818"/>
        <path id="Path_1515" data-name="Path 1515" d="M128.491,16.271h-7.917v-.6h.438c.54,0,.877-.239.877-.9V1.814c0-.656-.337-.893-.877-.893h-.438v-.6h4.787v.6h-.421a.777.777,0,0,0-.877.893v13.76h1.18c2.146,0,2.708-2.453,2.708-4.721v-.061h.54Z" transform="translate(-59.759 -0.157)" fill="#1a1818"/>
        <path id="Path_1516" data-name="Path 1516" d="M77.484.921h-.159c-.769,0-1.163.139-1.435,1.451l-2.91,14.017h-.9L70.264,7.22h-.019l-1.853,9.169h-.9L64.641,2.013C64.459,1.1,64.2.921,63.386.921h-.06v-.6h4.307v.6h-.08c-.62,0-.777.179-.777.6a2.654,2.654,0,0,0,.04.4l1.815,9.734h.038l1.177-6.406L69.23,2.013c-.153-.8-.335-1.092-.979-1.092h-.1v-.6h4.265v.6H72.34c-.759,0-.957.268-.958.813a2.683,2.683,0,0,0,.059.5l1.816,9.295h.04L75.01,2.212a2.772,2.772,0,0,0,.041-.438c0-.577-.212-.853-1.059-.853h-.12v-.6h3.61Z" transform="translate(-31.386 -0.157)" fill="#1a1818"/>
        <path id="Path_1517" data-name="Path 1517" d="M103.384,16.113H91.218v-.6h.1c.824,0,1.078-.22,1.078-.676a3.071,3.071,0,0,0-.059-.483l-.383-2.11H89.244l-.377,2.11a2.816,2.816,0,0,0-.061.483c0,.494.195.676,1.016.676h.08v.6h-3.41v-.6h.18c.7,0,1.1-.163,1.276-1.1L90.72,0h1.019L94.59,14.356c.17.867.617,1.159,1,1.159h.319c.54,0,.878-.239.878-.9V1.657a.777.777,0,0,0-.878-.894h-.419v-.6h4.786v.6h-.44a.777.777,0,0,0-.878.894v13.76h1.177c2.151,0,2.711-2.436,2.711-4.741v-.061h.54ZM91.8,11.509,90.6,4.45h-.04l-1.2,7.059Z" transform="translate(-42.867 0)" fill="#1a1818"/>
        <path id="Path_1518" data-name="Path 1518" d="M240.19,5.84h-.54V5.78c0-2.567-.973-4.76-2.115-4.76h-.477V14.757c0,.659.337.917.876.917h.442v.594h-4.848v-.594h.457c.541,0,.88-.26.88-.917V1.02h-.419c-1.141,0-2.112,2.056-2.112,4.76V5.84h-.54V.317h8.4Z" transform="translate(-114.881 -0.157)" fill="#1a1818"/>
        <path id="Path_1519" data-name="Path 1519" d="M222.4,16.269h-8.156v-.595h.44c.538,0,.857-.259.857-.916V1.836c0-.658-.319-.916-.857-.916h-.44v-.6H222.4V5.8h-.538v-.06c0-3.249-.989-4.721-2.792-4.721h-1.336V7.637h.338c1.018,0,1.5-.982,1.5-3.031V4.547h.538v6.9h-.538v-.04c0-2.017-.458-3.057-1.5-3.057h-.338v7.219h1.255c1.782,0,2.873-1.735,2.873-4.7v-.059h.538Z" transform="translate(-106.182 -0.157)" fill="#1a1818"/>
        <path id="Path_1520" data-name="Path 1520" d="M205.161,16.269h-8.156v-.595h.438c.539,0,.858-.259.858-.916V1.836c0-.658-.319-.916-.858-.916h-.438v-.6h8.156V5.8h-.54v-.06c0-3.249-.985-4.721-2.792-4.721h-1.336V7.637h.339c1.016,0,1.5-.982,1.5-3.031V4.547h.539v6.9h-.539v-.04c0-2.017-.461-3.057-1.5-3.057h-.339v7.219h1.256c1.785,0,2.872-1.735,2.872-4.7v-.059h.54Z" transform="translate(-97.64 -0.157)" fill="#1a1818"/>
        <path id="Path_1521" data-name="Path 1521" d="M168.514,5.84h-.535V5.78c0-2.567-.976-4.76-2.117-4.76h-.475V14.757c0,.659.335.917.874.917h.419v.594h-4.825v-.594h.457c.54,0,.879-.26.879-.917V1.02h-.418c-1.141,0-2.113,2.056-2.113,4.76V5.84h-.539V.317h8.392Z" transform="translate(-79.36 -0.157)" fill="#1a1818"/>
        <path id="Path_1522" data-name="Path 1522" d="M152.772,12.288c0,2.82-1.71,3.983-3.71,3.983a4.274,4.274,0,0,1-2.81-.955l-.377.835h-.418V10.673h.538v.161c0,3.845,1.936,4.721,2.91,4.721,1.417,0,2.133-1.043,2.133-2.535,0-1.829-1.15-3.17-2.812-4.421-1.5-1.142-2.889-2.541-2.889-4.866,0-2.4,1.478-3.655,3.25-3.655a3.493,3.493,0,0,1,2.552.943l.4-.781h.4v5.5H151.4V5.584C151.4,2.6,150.5.8,148.725.8c-1.078,0-1.717.789-1.717,2.055,0,1.5.887,2.348,2.536,3.623,1.824,1.416,3.229,2.908,3.229,5.807" transform="translate(-72.031 -0.039)" fill="#1a1818"/>
        <path id="Path_1523" data-name="Path 1523" d="M187.363,14.093c0,1.34-.509,2.294-1.813,2.294s-1.863-.968-1.955-2.95l-.139-2.969c-.074-1.566-.676-2-1.575-2H181.3v6.286c0,.657.26.916.8.916h.516v.595h-4.823v-.595h.457c.539,0,.877-.26.877-.916V1.836c0-.659-.338-.916-.877-.916h-.457v-.6h4.366c2.638,0,4.286,1.355,4.286,3.871a3.827,3.827,0,0,1-3.45,3.945v.04a2.831,2.831,0,0,1,2.614,2.639l.18,3.481c.033.7.118.9.457.9.4,0,.5-.3.5-1.339v-.577h.621Zm-3.212-9.864c0-2.5-.985-3.21-2.332-3.21h-.52V7.736h.6c1.4,0,2.252-.954,2.252-3.507" transform="translate(-88.117 -0.157)" fill="#1a1818"/>
        <path id="Path_1524" data-name="Path 1524" d="M376.883,28.949a.93.93,0,1,1-1.831,0,.928.928,0,1,1,1.831,0" transform="translate(-185.883 -13.814)" fill="#1a1818"/>
        <path id="Path_1525" data-name="Path 1525" d="M332.329.92H331.9c-.5,0-.9.376-.9,1.154V16.33h-.779L325.244,3.77h-.04V14.512c0,.783.4,1.163.9,1.163h.424v.594h-3.355v-.594h.422c.5,0,.9-.379.9-1.163V1.914c0-.558-.218-.995-.781-.995h-.538v-.6H326.2l4.047,10.27h.036V2.074c0-.784-.4-1.154-.891-1.154h-.418v-.6h3.355Z" transform="translate(-160.169 -0.157)" fill="#1a1818"/>
        <path id="Path_1526" data-name="Path 1526" d="M261.7.92h-.436c-.542,0-.879.257-.879.916V12.962c0,2.5-1.567,3.427-3.57,3.427-1.43,0-2.87-1.17-2.87-3.427,0-1.21.753-1.732,1.357-1.732a1.068,1.068,0,0,1,1.075,1.193,1.353,1.353,0,0,1-1.294,1.472,1.756,1.756,0,0,0,1.71,1.78c1.04,0,1.4-.578,1.4-2.295V1.836c0-.658-.317-.916-.857-.916h-.5v-.6H261.7Z" transform="translate(-125.86 -0.157)" fill="#1a1818"/>
        <path id="Path_1527" data-name="Path 1527" d="M356.595,16.111H344.4v-.595h.121c.823,0,1.076-.22,1.076-.677a3.346,3.346,0,0,0-.061-.485l-.378-2.106H342.45l-.377,2.106a2.917,2.917,0,0,0-.06.485c0,.492.192.677,1.015.677h.08v.595H339.7v-.595h.18c.706,0,1.1-.164,1.283-1.1L343.924,0h1.014l2.854,14.354c.172.871.621,1.163,1,1.163h.319c.537,0,.874-.241.874-.9V1.658c0-.657-.337-.9-.874-.9h-.437v-.6h4.812v.6h-.456c-.539,0-.878.239-.878.9V15.415h1.176c2.151,0,2.713-2.434,2.713-4.72v-.061h.548Zm-11.6-4.6-1.2-7.061h-.039l-1.193,7.061Z" transform="translate(-168.36 0)" fill="#1a1818"/>
        <path id="Path_1528" data-name="Path 1528" d="M304.473,14.093c0,1.34-.506,2.294-1.811,2.294s-1.861-.968-1.955-2.95l-.14-2.969c-.075-1.572-.673-2-1.572-2h-.581v6.286c0,.657.26.916.8.916h.493v.595h-4.8v-.595h.46c.539,0,.874-.26.874-.916V1.836c0-.653-.326-.916-.853-.916h-.84c-.5,0-.8.416-.8,1.154V12.7c0,2.119-.706,3.687-2.989,3.687a3.507,3.507,0,0,1-3.849-3.687V1.836c0-.66-.319-.916-.857-.916h-.442v-.6h4.808v.6h-.439c-.543,0-.857.256-.857.916V12.842c0,1.794.707,2.75,1.916,2.75s1.971-.792,1.971-2.75V2.073c0-.738-.279-1.154-.779-1.154h-.5v-.6h7.539c2.637,0,4.286,1.355,4.286,3.871a3.83,3.83,0,0,1-3.452,3.945v.04a2.829,2.829,0,0,1,2.617,2.639l.179,3.481c.035.7.119.9.458.9.4,0,.5-.3.5-1.339v-.577h.615Zm-3.206-9.864c0-2.5-.986-3.21-2.331-3.21h-.522V7.736h.6c1.406,0,2.253-.954,2.253-3.507" transform="translate(-141.555 -0.157)" fill="#1a1818"/>
        <path id="Path_1529" data-name="Path 1529" d="M277.484,8.136c0,4.533-1.486,8.134-4.208,8.134-2.654,0-4.146-3.6-4.146-8.134S270.557.078,273.276.078c2.689,0,4.208,3.527,4.208,8.058m-2.471,3.792V4.388c0-2.757-.614-3.588-1.737-3.588s-1.694.789-1.694,3.627v7.477c0,2.658.507,3.65,1.694,3.65,1.164,0,1.737-1.057,1.737-3.627" transform="translate(-133.386 -0.039)" fill="#1a1818"/>
      </g>
    </g>
    <path id="Path_1534" data-name="Path 1534" d="M.84,0V-8.64H4.254q.126,0,.3.009a2.574,2.574,0,0,1,.336.039,2.5,2.5,0,0,1,1.179.48,2.314,2.314,0,0,1,.717.939,3.193,3.193,0,0,1,.24,1.257,3.143,3.143,0,0,1-.243,1.251,2.361,2.361,0,0,1-.72.942A2.474,2.474,0,0,1,4.89-3.24q-.162.024-.336.036t-.3.012H1.908V0ZM1.908-4.206h2.31q.114,0,.261-.012a1.988,1.988,0,0,0,.279-.042,1.392,1.392,0,0,0,.675-.351,1.531,1.531,0,0,0,.381-.6,2.132,2.132,0,0,0,.12-.7,2.132,2.132,0,0,0-.12-.7,1.556,1.556,0,0,0-.381-.6,1.34,1.34,0,0,0-.675-.348,1.378,1.378,0,0,0-.279-.045q-.147-.009-.261-.009H1.908ZM10.446.168a2.632,2.632,0,0,1-1.071-.2,2.132,2.132,0,0,1-.741-.528,2.6,2.6,0,0,1-.462-.732,3.668,3.668,0,0,1-.237-.822A4.864,4.864,0,0,1,7.866-2.9V-6.48h1.08v3.246a4.549,4.549,0,0,0,.084.882,2.431,2.431,0,0,0,.285.768,1.487,1.487,0,0,0,.54.54,1.662,1.662,0,0,0,.849.2,1.88,1.88,0,0,0,.732-.138A1.491,1.491,0,0,0,12-1.4a1.879,1.879,0,0,0,.36-.693,3.415,3.415,0,0,0,.126-.978l.7.216a3.572,3.572,0,0,1-.339,1.614A2.446,2.446,0,0,1,11.9-.2,2.8,2.8,0,0,1,10.446.168ZM12.606,0V-1.734h-.12V-6.48H13.56V0Zm5.37.18A2.545,2.545,0,0,1,16.44-.273,2.8,2.8,0,0,1,15.5-1.5a4.526,4.526,0,0,1-.321-1.743A4.537,4.537,0,0,1,15.5-5a2.736,2.736,0,0,1,.948-1.218,2.6,2.6,0,0,1,1.539-.444,2.673,2.673,0,0,1,1.551.447,2.872,2.872,0,0,1,1,1.221,4.213,4.213,0,0,1,.348,1.746A4.213,4.213,0,0,1,20.532-1.5a2.914,2.914,0,0,1-1,1.227A2.657,2.657,0,0,1,17.976.18ZM14.994,0V-8.64h1.074v3.87h-.12V0Zm2.85-.8a1.688,1.688,0,0,0,1.062-.324A1.952,1.952,0,0,0,19.536-2a3.5,3.5,0,0,0,.21-1.245,3.5,3.5,0,0,0-.207-1.236,1.907,1.907,0,0,0-.636-.876,1.757,1.757,0,0,0-1.089-.324,1.7,1.7,0,0,0-1.044.309,1.836,1.836,0,0,0-.618.858,3.633,3.633,0,0,0-.2,1.269,3.7,3.7,0,0,0,.2,1.263,1.836,1.836,0,0,0,.621.87A1.742,1.742,0,0,0,17.844-.8ZM22.08,0V-8.82h1.068V0Zm2.748-7.626v-1.1H25.9v1.1Zm0,7.626V-6.48H25.9V0ZM29.9.174A3.293,3.293,0,0,1,28-.333,2.113,2.113,0,0,1,27.1-1.752l1.092-.174a1.367,1.367,0,0,0,.606.837A2.11,2.11,0,0,0,29.97-.78a1.74,1.74,0,0,0,1.044-.276.88.88,0,0,0,.378-.75.735.735,0,0,0-.126-.447,1.16,1.16,0,0,0-.519-.321q-.393-.15-1.185-.36a7.318,7.318,0,0,1-1.35-.474,1.731,1.731,0,0,1-.7-.57,1.414,1.414,0,0,1-.21-.786,1.653,1.653,0,0,1,.312-1,2,2,0,0,1,.873-.663A3.37,3.37,0,0,1,29.79-6.66a3.514,3.514,0,0,1,1.32.234,2.319,2.319,0,0,1,.939.663,1.862,1.862,0,0,1,.423,1l-1.092.2a1.181,1.181,0,0,0-.5-.822,1.933,1.933,0,0,0-1.089-.318,1.772,1.772,0,0,0-1.023.222.753.753,0,0,0-.393.666.59.59,0,0,0,.147.4,1.383,1.383,0,0,0,.546.318,11.508,11.508,0,0,0,1.161.342,6.5,6.5,0,0,1,1.353.471,1.712,1.712,0,0,1,.7.6,1.605,1.605,0,0,1,.21.849,1.765,1.765,0,0,1-.69,1.473A3.025,3.025,0,0,1,29.9.174ZM38.2,0V-3.246a4.746,4.746,0,0,0-.081-.888,2.346,2.346,0,0,0-.282-.765,1.5,1.5,0,0,0-.54-.537,1.675,1.675,0,0,0-.855-.2,1.894,1.894,0,0,0-.729.135,1.454,1.454,0,0,0-.561.411,1.947,1.947,0,0,0-.363.693,3.333,3.333,0,0,0-.129.981l-.7-.216a3.567,3.567,0,0,1,.339-1.617,2.45,2.45,0,0,1,.954-1.038A2.8,2.8,0,0,1,36.7-6.648a2.627,2.627,0,0,1,1.074.2,2.158,2.158,0,0,1,.738.525,2.547,2.547,0,0,1,.462.732,3.729,3.729,0,0,1,.237.822,4.842,4.842,0,0,1,.069.789V0Zm-4.62,0V-8.64h.96v4.77h.12V0Zm7.14-7.626v-1.1h1.068v1.1Zm0,7.626V-6.48h1.068V0Zm7.242,0V-3.246a4.746,4.746,0,0,0-.081-.888A2.346,2.346,0,0,0,47.6-4.9a1.5,1.5,0,0,0-.54-.537,1.675,1.675,0,0,0-.855-.2,1.894,1.894,0,0,0-.729.135,1.454,1.454,0,0,0-.561.411,1.947,1.947,0,0,0-.363.693,3.333,3.333,0,0,0-.129.981l-.7-.216a3.567,3.567,0,0,1,.339-1.617,2.45,2.45,0,0,1,.954-1.038,2.8,2.8,0,0,1,1.449-.363,2.627,2.627,0,0,1,1.074.2,2.158,2.158,0,0,1,.738.525,2.547,2.547,0,0,1,.462.732,3.729,3.729,0,0,1,.237.822,4.842,4.842,0,0,1,.069.789V0Zm-4.62,0V-6.48h.96v1.734h.12V0ZM52.98,3.06a3.239,3.239,0,0,1-1-.156,2.869,2.869,0,0,1-.891-.471,2.619,2.619,0,0,1-.675-.8l.978-.516a1.489,1.489,0,0,0,.681.69,2.044,2.044,0,0,0,.909.216A2.105,2.105,0,0,0,54.012,1.8a1.368,1.368,0,0,0,.6-.669A2.687,2.687,0,0,0,54.8.03V-1.74h.126V-6.48h.948V.042q0,.264-.015.51a3.588,3.588,0,0,1-.063.486,2.421,2.421,0,0,1-.5,1.137,2.237,2.237,0,0,1-.96.666A3.891,3.891,0,0,1,52.98,3.06ZM52.9.18a2.643,2.643,0,0,1-1.554-.453,2.944,2.944,0,0,1-1-1.227A4.182,4.182,0,0,1,50-3.246a4.182,4.182,0,0,1,.351-1.746,2.9,2.9,0,0,1,1-1.221A2.659,2.659,0,0,1,52.9-6.66a2.592,2.592,0,0,1,1.542.444A2.744,2.744,0,0,1,55.383-5,4.537,4.537,0,0,1,55.7-3.246,4.526,4.526,0,0,1,55.383-1.5a2.8,2.8,0,0,1-.945,1.23A2.545,2.545,0,0,1,52.9.18ZM53.034-.8a1.742,1.742,0,0,0,1.074-.315,1.836,1.836,0,0,0,.621-.87,3.7,3.7,0,0,0,.2-1.263,3.682,3.682,0,0,0-.2-1.269,1.818,1.818,0,0,0-.615-.858,1.708,1.708,0,0,0-1.05-.309,1.757,1.757,0,0,0-1.089.324,1.907,1.907,0,0,0-.636.876,3.5,3.5,0,0,0-.207,1.236A3.5,3.5,0,0,0,51.342-2a1.943,1.943,0,0,0,.633.879A1.691,1.691,0,0,0,53.034-.8Zm6.444.8V-8.64h3.414q.126,0,.3.009a2.574,2.574,0,0,1,.336.039,2.5,2.5,0,0,1,1.179.48,2.314,2.314,0,0,1,.717.939,3.194,3.194,0,0,1,.24,1.257,3.143,3.143,0,0,1-.243,1.251,2.361,2.361,0,0,1-.72.942,2.474,2.474,0,0,1-1.173.483q-.162.024-.336.036t-.3.012H60.546V0Zm1.068-4.206h2.31q.114,0,.261-.012A1.988,1.988,0,0,0,63.4-4.26a1.392,1.392,0,0,0,.675-.351,1.531,1.531,0,0,0,.381-.6,2.132,2.132,0,0,0,.12-.7,2.132,2.132,0,0,0-.12-.7,1.556,1.556,0,0,0-.381-.6,1.34,1.34,0,0,0-.675-.348,1.378,1.378,0,0,0-.279-.045q-.147-.009-.261-.009h-2.31ZM68.226.18a2.51,2.51,0,0,1-1.215-.267,1.834,1.834,0,0,1-.738-.7,1.909,1.909,0,0,1-.249-.96,1.894,1.894,0,0,1,.195-.885,1.73,1.73,0,0,1,.549-.624,2.851,2.851,0,0,1,.846-.393,10.109,10.109,0,0,1,1.035-.219q.573-.093,1.161-.171t1.1-.15l-.384.222a1.84,1.84,0,0,0-.345-1.278,1.6,1.6,0,0,0-1.251-.414A1.948,1.948,0,0,0,67.9-5.4a1.447,1.447,0,0,0-.621.867l-1.014-.306a2.369,2.369,0,0,1,.906-1.338,2.954,2.954,0,0,1,1.77-.486,3.368,3.368,0,0,1,1.515.315,1.863,1.863,0,0,1,.909.951,2.046,2.046,0,0,1,.174.651,7.21,7.21,0,0,1,.036.735V0h-.948V-1.554l.222.144A2.665,2.665,0,0,1,69.825-.222,3.008,3.008,0,0,1,68.226.18Zm.162-.894a2.25,2.25,0,0,0,1-.207,1.872,1.872,0,0,0,.681-.546,1.766,1.766,0,0,0,.336-.741,2.542,2.542,0,0,0,.1-.669q.009-.369.009-.567l.372.162q-.522.072-1.026.138T68.9-3a7.526,7.526,0,0,0-.81.177,2.557,2.557,0,0,0-.5.216,1.106,1.106,0,0,0-.372.339.89.89,0,0,0-.141.513,1.013,1.013,0,0,0,.135.5,1,1,0,0,0,.42.39A1.6,1.6,0,0,0,68.388-.714ZM72.894,0V-6.48h.954v1.566l-.156-.2a2.363,2.363,0,0,1,.3-.552,1.8,1.8,0,0,1,.411-.414,1.836,1.836,0,0,1,.57-.312,2.5,2.5,0,0,1,.648-.129,2.147,2.147,0,0,1,.618.045v1a2.025,2.025,0,0,0-.738-.048,1.5,1.5,0,0,0-.744.294,1.573,1.573,0,0,0-.483.54,2.293,2.293,0,0,0-.237.687,4.269,4.269,0,0,0-.066.753V0Zm7.86,0a4.9,4.9,0,0,1-1.137.093,2.538,2.538,0,0,1-1-.228,1.416,1.416,0,0,1-.666-.645,1.886,1.886,0,0,1-.207-.777q-.015-.393-.015-.891V-8.28H78.8V-2.5q0,.4.009.678a1.052,1.052,0,0,0,.123.486.881.881,0,0,0,.687.45,3.99,3.99,0,0,0,1.137-.036ZM76.416-5.6V-6.48h4.338V-5.6ZM86.448,0V-3.246a4.746,4.746,0,0,0-.081-.888,2.346,2.346,0,0,0-.282-.765,1.5,1.5,0,0,0-.54-.537,1.675,1.675,0,0,0-.855-.2,1.894,1.894,0,0,0-.729.135,1.454,1.454,0,0,0-.561.411,1.947,1.947,0,0,0-.363.693,3.333,3.333,0,0,0-.129.981l-.7-.216a3.567,3.567,0,0,1,.339-1.617A2.45,2.45,0,0,1,83.5-6.285a2.8,2.8,0,0,1,1.449-.363,2.627,2.627,0,0,1,1.074.2,2.158,2.158,0,0,1,.738.525,2.547,2.547,0,0,1,.462.732,3.729,3.729,0,0,1,.237.822,4.843,4.843,0,0,1,.069.789V0Zm-4.62,0V-6.48h.96v1.734h.12V0ZM91.6.18a3.2,3.2,0,0,1-1.665-.423,2.91,2.91,0,0,1-1.107-1.182,3.781,3.781,0,0,1-.4-1.773,4.054,4.054,0,0,1,.39-1.839,2.871,2.871,0,0,1,1.089-1.2,3.108,3.108,0,0,1,1.641-.423,2.972,2.972,0,0,1,1.665.45,2.737,2.737,0,0,1,1.032,1.284,4.663,4.663,0,0,1,.3,1.986h-1.08v-.384a2.919,2.919,0,0,0-.486-1.785A1.668,1.668,0,0,0,91.584-5.7a1.826,1.826,0,0,0-1.506.636,2.831,2.831,0,0,0-.516,1.824,2.732,2.732,0,0,0,.516,1.776,1.792,1.792,0,0,0,1.47.63,2.074,2.074,0,0,0,1.116-.294,2,2,0,0,0,.744-.846l1.026.354A2.894,2.894,0,0,1,93.3-.291,3.16,3.16,0,0,1,91.6.18ZM89.2-2.94V-3.8H93.99v.858ZM95.634,0V-6.48h.954v1.566l-.156-.2a2.363,2.363,0,0,1,.3-.552,1.8,1.8,0,0,1,.411-.414,1.836,1.836,0,0,1,.57-.312,2.5,2.5,0,0,1,.648-.129,2.147,2.147,0,0,1,.618.045v1a2.025,2.025,0,0,0-.738-.048,1.5,1.5,0,0,0-.744.294,1.573,1.573,0,0,0-.483.54,2.293,2.293,0,0,0-.237.687,4.269,4.269,0,0,0-.066.753V0Z" transform="translate(18406 -10879)" fill="#a6a6a6"/>
  </g>
</svg>
