<svg xmlns="http://www.w3.org/2000/svg" xmlns:xlink="http://www.w3.org/1999/xlink" width="167" height="40.999" viewBox="0 0 167 40.999">
  <defs>
    <clipPath id="clip-path">
      <rect id="Rectangle_713" data-name="Rectangle 713" width="21.236" height="11.456" fill="none"/>
    </clipPath>
  </defs>
  <g id="toVimaComMobile" transform="translate(-18401 11015.999)">
    <g id="Group_1129" data-name="Group 1129" transform="translate(17769.793 -11301.754)">
      <path id="Path_55" data-name="Path 55" d="M135.854,27.489l-.5-.671a4.944,4.944,0,0,1-2.679,1.043c-2.143-.037-2.373-2.273-2.373-3.913V13.663h5.013l.191-1.342h-5.2V8.483l-2.028.6c-.383,2.236-1.033,3.652-3.635,3.652l-.344.932h2.793c0,3.8,0,7.6.038,11.4.038,2.385.612,4.882,3.559,4.882,1.607,0,3.98-1.416,5.166-2.5Zm16.914-6.894c0-4.472-2.794-8.683-7.73-8.683a9.333,9.333,0,0,0-9.452,9.578c0,4.4,2.832,8.5,7.73,8.5A9.362,9.362,0,0,0,152.768,20.595Zm-3.138,2.012c0,3.391-1.225,5.7-5.051,5.7-4.362,0-5.97-5.627-5.931-9.019,0-2.87,1.875-5.665,5.051-5.665C148.061,13.588,149.63,19.178,149.63,22.607Zm20.282-9.279V12.321h-4.669v.969c.651-.037.957.3.957.932.038,1.789-3.865,11.739-4.171,12.633-.421-1.043-4.4-10.584-4.439-12.522,0-.708.344-1.081,1.033-1.043v-.969h-6.391v.969c1.722,0,2.258,2.348,2.717,3.615l1.148,3.242,3.406,9.466h2.87l3.674-9.466c.383-1.006.727-2.012,1.11-3.019C167.577,15.936,168.266,13.328,169.911,13.328Zm6.123-5.255a2.163,2.163,0,0,0-4.324,0,2.087,2.087,0,0,0,2.219,2.087A2.154,2.154,0,0,0,176.034,8.073Zm1.033,21.54v-.969a1.394,1.394,0,0,1-1.148-.373c-.727-.932-.536-5.553-.536-6.671V11.949l-4.707.857v1.043c1.952-.3,1.722,3.95,1.722,5.106l-.038,2.832c0,1.081.191,5.665-.5,6.522a1.434,1.434,0,0,1-1.186.373v.932Zm29.963,0v-.969a1.514,1.514,0,0,1-1.071-.3c-.842-.82-.612-5.665-.612-6.745V18.657c0-3.615.115-6.633-4.592-6.633-2.1,0-5.2,1.826-6.505,3.429-.306-2.646-1.8-3.5-4.362-3.466-2.1,0-4.86,1.714-6.2,3.279l-.038-3.317-4.707.857v1.043c1.952-.3,1.722,3.95,1.722,5.106l-.038,2.832c0,1.043.191,5.851-.612,6.633a2.2,2.2,0,0,1-1.11.224l.038.969h6.391v-.969a1.514,1.514,0,0,1-1.072-.3c-.8-.783-.612-4.882-.612-5.888v-3.95a4.187,4.187,0,0,1,4.324-4.174c3.482,0,3.559,2.161,3.521,4.882l-.038,2.571c0,1.043.23,5.814-.612,6.6a1.819,1.819,0,0,1-1.11.261l.038.969h6.391v-.969a1.514,1.514,0,0,1-1.071-.3c-.8-.783-.574-4.882-.574-5.888l-.038-3.95a4.2,4.2,0,0,1,4.362-4.174c3.482,0,3.559,2.161,3.521,4.882l-.038,2.571c0,1.043.23,5.776-.651,6.559a1.513,1.513,0,0,1-1.071.3l.038.969Zm16.455-.708-.23-.857a2.942,2.942,0,0,1-.995.186c-1.263,0-1.263-1.863-1.263-2.72V18.359c0-3.838-1.8-6.484-6.008-6.484-1.645,0-4.822,2.311-5.97,3.5l.765.857c.995-.783,2.794-1.938,4.095-1.938,2.755,0,4.095,1.64,4.095,4.248v.894c-3.444.522-10.37,1.826-10.37,6.224,0,2.683,2.143,4.286,4.822,4.286,1.531,0,4.707-2.124,5.664-3.317,0,1.453-.153,3.279,1.913,3.317A9.153,9.153,0,0,0,223.485,28.905Zm-5.4-6.373a11.654,11.654,0,0,1-.23,2.87,5.558,5.558,0,0,1-3.98,2.273,2.748,2.748,0,0,1-2.755-2.758c.038-3.317,4.324-4.025,6.926-4.472C218.09,21.154,218.09,21.862,218.09,22.532Z" transform="translate(506.91 279.769)" fill="#262626"/>
      <path id="Path_56" data-name="Path 56" d="M315.407,33.237l-.038.038a2.526,2.526,0,0,0-5.051.038,2.545,2.545,0,0,0,5.09-.077Zm15-.918-.459-.651a8.281,8.281,0,0,1-4.362,1.76c-4.248,0-6.582-3.75-6.582-7.691,0-2.679.8-6.735,4.209-6.735a7.265,7.265,0,0,1,5.319,2.832l1.8-2.526a6.76,6.76,0,0,0-5.051-2.1c-5.51,0-9.452,4.477-9.452,9.873,0,4.745,3.214,8.686,8.151,8.686C325.739,35.763,329.068,33.505,330.407,32.319Zm17.679-6.161c0-4.592-2.793-8.916-7.73-8.916-5.51,0-9.452,4.4-9.452,9.834,0,4.515,2.832,8.725,7.73,8.725A9.49,9.49,0,0,0,348.087,26.158Zm-3.138,2.066c0,3.482-1.225,5.855-5.051,5.855-4.362,0-5.97-5.778-5.931-9.26,0-2.946,1.875-5.816,5.051-5.816C343.38,18.964,344.949,24.7,344.949,28.225Zm31.915,7.194v-.995a1.485,1.485,0,0,1-1.071-.306c-.842-.842-.612-5.816-.612-6.926V24.168c0-3.712.115-6.811-4.592-6.811-2.1,0-5.2,1.875-6.505,3.52-.306-2.717-1.8-3.6-4.362-3.559-2.1,0-4.86,1.76-6.2,3.367l-.038-3.406-4.707.88v1.071c1.952-.306,1.722,4.056,1.722,5.242l-.038,2.908c0,1.071.191,6.008-.612,6.811a2.147,2.147,0,0,1-1.11.23l.038.995h6.391v-.995a1.485,1.485,0,0,1-1.071-.306c-.8-.8-.612-5.013-.612-6.046V24.015a4.24,4.24,0,0,1,4.324-4.286c3.482,0,3.559,2.219,3.521,5.013l-.038,2.64c0,1.071.23,5.969-.612,6.773a1.781,1.781,0,0,1-1.11.268l.038.995H366v-.995a1.485,1.485,0,0,1-1.071-.306c-.8-.8-.574-5.013-.574-6.046l-.038-4.056a4.249,4.249,0,0,1,4.362-4.286c3.482,0,3.559,2.219,3.521,5.013l-.038,2.64c0,1.071.23,5.931-.651,6.735a1.485,1.485,0,0,1-1.071.306l.038.995Z" transform="translate(421.344 273.953)" fill="#262626" opacity="0.6"/>
    </g>
    <g id="Group_1135" data-name="Group 1135" transform="translate(-55.97 -26)">
      <path id="Path_1533" data-name="Path 1533" d="M-82.03,0V-7.2h2.845q.1,0,.25.008a2.145,2.145,0,0,1,.28.032,2.081,2.081,0,0,1,.983.4,1.928,1.928,0,0,1,.6.783,2.661,2.661,0,0,1,.2,1.047,2.619,2.619,0,0,1-.2,1.043,1.968,1.968,0,0,1-.6.785,2.061,2.061,0,0,1-.978.4q-.135.02-.28.03t-.25.01H-81.14V0Zm.89-3.505h1.925q.095,0,.217-.01a1.657,1.657,0,0,0,.232-.035,1.16,1.16,0,0,0,.563-.293,1.276,1.276,0,0,0,.318-.5,1.776,1.776,0,0,0,.1-.588,1.776,1.776,0,0,0-.1-.587,1.3,1.3,0,0,0-.318-.5,1.116,1.116,0,0,0-.562-.29A1.148,1.148,0,0,0-79-6.347q-.122-.007-.217-.008H-81.14ZM-74.025.14a2.194,2.194,0,0,1-.893-.165,1.777,1.777,0,0,1-.618-.44,2.168,2.168,0,0,1-.385-.61,3.056,3.056,0,0,1-.2-.685,4.053,4.053,0,0,1-.058-.655V-5.4h.9v2.7a3.791,3.791,0,0,0,.07.735,2.026,2.026,0,0,0,.238.64,1.239,1.239,0,0,0,.45.45,1.385,1.385,0,0,0,.707.165A1.566,1.566,0,0,0-73.2-.82a1.242,1.242,0,0,0,.47-.343,1.566,1.566,0,0,0,.3-.577,2.845,2.845,0,0,0,.1-.815l.585.18a2.977,2.977,0,0,1-.283,1.345,2.038,2.038,0,0,1-.8.868A2.332,2.332,0,0,1-74.025.14Zm1.8-.14V-1.445h-.1V-5.4h.9V0Zm4.475.15a2.12,2.12,0,0,1-1.28-.378,2.335,2.335,0,0,1-.787-1.025A3.772,3.772,0,0,1-70.085-2.7a3.781,3.781,0,0,1,.268-1.46,2.28,2.28,0,0,1,.79-1.015,2.163,2.163,0,0,1,1.283-.37,2.227,2.227,0,0,1,1.293.372A2.394,2.394,0,0,1-65.62-4.16,3.511,3.511,0,0,1-65.33-2.7a3.511,3.511,0,0,1-.29,1.455,2.428,2.428,0,0,1-.832,1.022A2.214,2.214,0,0,1-67.75.15ZM-70.235,0V-7.2h.895v3.225h-.1V0Zm2.375-.665a1.406,1.406,0,0,0,.885-.27,1.627,1.627,0,0,0,.525-.733A2.914,2.914,0,0,0-66.275-2.7a2.915,2.915,0,0,0-.173-1.03,1.589,1.589,0,0,0-.53-.73,1.464,1.464,0,0,0-.908-.27,1.415,1.415,0,0,0-.87.257,1.53,1.53,0,0,0-.515.715A3.027,3.027,0,0,0-69.44-2.7a3.079,3.079,0,0,0,.168,1.052,1.53,1.53,0,0,0,.518.725A1.451,1.451,0,0,0-67.86-.665ZM-64.33,0V-7.35h.89V0Zm2.29-6.355v-.92h.89v.92Zm0,6.355V-5.4h.89V0Zm4.23.145a2.744,2.744,0,0,1-1.583-.423A1.761,1.761,0,0,1-60.15-1.46l.91-.145a1.139,1.139,0,0,0,.5.7,1.758,1.758,0,0,0,.98.257,1.45,1.45,0,0,0,.87-.23.733.733,0,0,0,.315-.625.613.613,0,0,0-.1-.372.967.967,0,0,0-.432-.267q-.328-.125-.987-.3A6.1,6.1,0,0,1-59.22-2.84a1.442,1.442,0,0,1-.585-.475,1.179,1.179,0,0,1-.175-.655,1.378,1.378,0,0,1,.26-.832,1.667,1.667,0,0,1,.727-.553A2.809,2.809,0,0,1-57.9-5.55a2.928,2.928,0,0,1,1.1.195,1.933,1.933,0,0,1,.783.553,1.552,1.552,0,0,1,.353.832l-.91.165A.984.984,0,0,0-57-4.49a1.611,1.611,0,0,0-.908-.265,1.477,1.477,0,0,0-.853.185.628.628,0,0,0-.327.555.492.492,0,0,0,.123.335,1.152,1.152,0,0,0,.455.265,9.59,9.59,0,0,0,.968.285,5.42,5.42,0,0,1,1.127.392,1.426,1.426,0,0,1,.587.5,1.338,1.338,0,0,1,.175.708A1.47,1.47,0,0,1-56.225-.3,2.521,2.521,0,0,1-57.81.145ZM-50.9,0V-2.7a3.955,3.955,0,0,0-.068-.74,1.955,1.955,0,0,0-.235-.638,1.245,1.245,0,0,0-.45-.447,1.4,1.4,0,0,0-.712-.165,1.578,1.578,0,0,0-.608.113,1.212,1.212,0,0,0-.467.342,1.622,1.622,0,0,0-.3.578,2.777,2.777,0,0,0-.107.818l-.585-.18a2.973,2.973,0,0,1,.283-1.348,2.041,2.041,0,0,1,.8-.865,2.332,2.332,0,0,1,1.208-.3,2.19,2.19,0,0,1,.895.165,1.8,1.8,0,0,1,.615.437,2.122,2.122,0,0,1,.385.61,3.107,3.107,0,0,1,.2.685A4.035,4.035,0,0,1-50-2.985V0Zm-3.85,0V-7.2h.8v3.975h.1V0Zm5.95-6.355v-.92h.89v.92ZM-48.8,0V-5.4h.89V0Zm6.035,0V-2.7a3.955,3.955,0,0,0-.068-.74,1.955,1.955,0,0,0-.235-.638,1.245,1.245,0,0,0-.45-.447A1.4,1.4,0,0,0-44.23-4.7a1.578,1.578,0,0,0-.608.113,1.212,1.212,0,0,0-.467.342,1.622,1.622,0,0,0-.3.578,2.777,2.777,0,0,0-.107.818l-.585-.18a2.973,2.973,0,0,1,.283-1.348,2.041,2.041,0,0,1,.8-.865,2.332,2.332,0,0,1,1.208-.3,2.19,2.19,0,0,1,.895.165,1.8,1.8,0,0,1,.615.437,2.122,2.122,0,0,1,.385.61,3.107,3.107,0,0,1,.2.685,4.035,4.035,0,0,1,.057.657V0Zm-3.85,0V-5.4h.8v1.445h.1V0Zm8.035,2.55a2.7,2.7,0,0,1-.83-.13,2.391,2.391,0,0,1-.743-.392,2.182,2.182,0,0,1-.562-.663l.815-.43a1.241,1.241,0,0,0,.568.575,1.7,1.7,0,0,0,.757.18A1.755,1.755,0,0,0-37.72,1.5a1.14,1.14,0,0,0,.5-.558,2.239,2.239,0,0,0,.157-.92V-1.45h.1V-5.4h.79V.035q0,.22-.013.425a2.99,2.99,0,0,1-.052.4,2.017,2.017,0,0,1-.415.947,1.864,1.864,0,0,1-.8.555A3.243,3.243,0,0,1-38.58,2.55Zm-.065-2.4A2.2,2.2,0,0,1-39.94-.228a2.453,2.453,0,0,1-.833-1.022A3.485,3.485,0,0,1-41.065-2.7a3.485,3.485,0,0,1,.292-1.455,2.418,2.418,0,0,1,.833-1.018,2.215,2.215,0,0,1,1.29-.372,2.16,2.16,0,0,1,1.285.37,2.287,2.287,0,0,1,.787,1.015A3.781,3.781,0,0,1-36.31-2.7a3.772,3.772,0,0,1-.267,1.452,2.335,2.335,0,0,1-.787,1.025A2.121,2.121,0,0,1-38.645.15Zm.11-.815a1.451,1.451,0,0,0,.9-.263,1.53,1.53,0,0,0,.517-.725A3.079,3.079,0,0,0-36.955-2.7a3.068,3.068,0,0,0-.167-1.058,1.515,1.515,0,0,0-.512-.715,1.423,1.423,0,0,0-.875-.257,1.464,1.464,0,0,0-.908.27,1.589,1.589,0,0,0-.53.73A2.915,2.915,0,0,0-40.12-2.7a2.913,2.913,0,0,0,.175,1.037,1.619,1.619,0,0,0,.528.733A1.409,1.409,0,0,0-38.535-.665Zm5.37.665V-7.2h2.845q.1,0,.25.008a2.145,2.145,0,0,1,.28.032,2.081,2.081,0,0,1,.982.4,1.928,1.928,0,0,1,.6.783,2.661,2.661,0,0,1,.2,1.047,2.619,2.619,0,0,1-.2,1.043,1.968,1.968,0,0,1-.6.785,2.061,2.061,0,0,1-.977.4q-.135.02-.28.03t-.25.01h-1.955V0Zm.89-3.505h1.925q.1,0,.218-.01A1.657,1.657,0,0,0-29.9-3.55a1.16,1.16,0,0,0,.563-.293,1.276,1.276,0,0,0,.318-.5,1.776,1.776,0,0,0,.1-.588,1.776,1.776,0,0,0-.1-.587,1.3,1.3,0,0,0-.318-.5,1.116,1.116,0,0,0-.562-.29,1.148,1.148,0,0,0-.233-.037q-.123-.007-.218-.008h-1.925Zm6.4,3.655a2.092,2.092,0,0,1-1.013-.223A1.529,1.529,0,0,1-27.5-.66a1.591,1.591,0,0,1-.208-.8,1.578,1.578,0,0,1,.163-.738,1.442,1.442,0,0,1,.458-.52,2.376,2.376,0,0,1,.7-.328,8.425,8.425,0,0,1,.862-.182q.478-.077.968-.143t.915-.125l-.32.185a1.533,1.533,0,0,0-.288-1.065A1.332,1.332,0,0,0-25.29-4.72a1.623,1.623,0,0,0-.858.222,1.206,1.206,0,0,0-.517.723l-.845-.255a1.974,1.974,0,0,1,.755-1.115,2.461,2.461,0,0,1,1.475-.4,2.807,2.807,0,0,1,1.263.263,1.553,1.553,0,0,1,.757.792,1.7,1.7,0,0,1,.145.543,6.007,6.007,0,0,1,.03.613V0h-.79V-1.3l.185.12a2.221,2.221,0,0,1-.852.99A2.507,2.507,0,0,1-25.875.15ZM-25.74-.6a1.875,1.875,0,0,0,.832-.173,1.56,1.56,0,0,0,.568-.455,1.472,1.472,0,0,0,.28-.618,2.118,2.118,0,0,0,.083-.557q.007-.307.007-.472l.31.135-.855.115q-.42.055-.8.118a6.272,6.272,0,0,0-.675.148,2.131,2.131,0,0,0-.413.18.921.921,0,0,0-.31.283.742.742,0,0,0-.118.428.844.844,0,0,0,.112.42.831.831,0,0,0,.35.325A1.337,1.337,0,0,0-25.74-.6Zm3.755.6V-5.4h.8v1.3l-.13-.17a1.969,1.969,0,0,1,.247-.46,1.5,1.5,0,0,1,.343-.345,1.53,1.53,0,0,1,.475-.26,2.084,2.084,0,0,1,.54-.108A1.789,1.789,0,0,1-19.2-5.4v.835a1.687,1.687,0,0,0-.615-.04,1.249,1.249,0,0,0-.62.245,1.311,1.311,0,0,0-.4.45,1.911,1.911,0,0,0-.2.573,3.557,3.557,0,0,0-.055.627V0Zm6.55,0a4.08,4.08,0,0,1-.948.078,2.115,2.115,0,0,1-.833-.19A1.18,1.18,0,0,1-17.77-.65a1.571,1.571,0,0,1-.173-.648q-.012-.328-.013-.743V-6.9h.89v4.82q0,.33.008.565a.876.876,0,0,0,.1.4.735.735,0,0,0,.573.375,3.325,3.325,0,0,0,.948-.03ZM-19.05-4.665V-5.4h3.615v.735ZM-10.69,0V-2.7a3.955,3.955,0,0,0-.067-.74,1.955,1.955,0,0,0-.235-.638,1.245,1.245,0,0,0-.45-.447,1.4,1.4,0,0,0-.713-.165,1.578,1.578,0,0,0-.608.113,1.212,1.212,0,0,0-.467.342,1.622,1.622,0,0,0-.3.578,2.777,2.777,0,0,0-.108.818l-.585-.18a2.973,2.973,0,0,1,.282-1.348,2.041,2.041,0,0,1,.8-.865,2.332,2.332,0,0,1,1.208-.3,2.19,2.19,0,0,1,.9.165,1.8,1.8,0,0,1,.615.437,2.122,2.122,0,0,1,.385.61,3.107,3.107,0,0,1,.2.685,4.035,4.035,0,0,1,.057.657V0Zm-3.85,0V-5.4h.8v1.445h.1V0ZM-6.4.15A2.663,2.663,0,0,1-7.787-.2a2.425,2.425,0,0,1-.922-.985,3.151,3.151,0,0,1-.33-1.478A3.379,3.379,0,0,1-8.715-4.2a2.392,2.392,0,0,1,.907-1A2.59,2.59,0,0,1-6.44-5.55a2.477,2.477,0,0,1,1.388.375,2.281,2.281,0,0,1,.86,1.07A3.886,3.886,0,0,1-3.945-2.45h-.9v-.32a2.432,2.432,0,0,0-.4-1.488A1.39,1.39,0,0,0-6.41-4.75a1.522,1.522,0,0,0-1.255.53,2.359,2.359,0,0,0-.43,1.52,2.276,2.276,0,0,0,.43,1.48A1.493,1.493,0,0,0-6.44-.7,1.728,1.728,0,0,0-5.51-.94a1.667,1.667,0,0,0,.62-.705l.855.3A2.412,2.412,0,0,1-4.982-.243,2.634,2.634,0,0,1-6.4.15Zm-1.995-2.6v-.715H-4.4v.715ZM-3.035,0V-5.4h.8v1.3l-.13-.17a1.969,1.969,0,0,1,.248-.46A1.5,1.5,0,0,1-1.78-5.07,1.53,1.53,0,0,1-1.3-5.33a2.084,2.084,0,0,1,.54-.108A1.789,1.789,0,0,1-.25-5.4v.835a1.687,1.687,0,0,0-.615-.04,1.249,1.249,0,0,0-.62.245,1.311,1.311,0,0,0-.4.45,1.911,1.911,0,0,0-.2.573,3.557,3.557,0,0,0-.055.627V0Z" transform="translate(18568 -10951.55)" fill="#a6a6a6"/>
      <g id="Group_1134" data-name="Group 1134" transform="translate(18573.686 -10961)">
        <g id="Group_1133" data-name="Group 1133" transform="translate(0 0)" clip-path="url(#clip-path)">
          <path id="Path_1530" data-name="Path 1530" d="M44.077,11.455A2.016,2.016,0,0,1,42.8,11a.783.783,0,0,0-.4-.2c-.189,0-.413.05-.585.592h-.207V7.642h.259c.207,2.121,1.034,3.452,2.188,3.452.775,0,1.309-.674,1.309-1.891,0-1.249-.911-2.15-1.846-3.075-.984-.974-1.995-1.974-1.995-3.433,0-1.529.809-2.7,2.273-2.7a1.662,1.662,0,0,1,1.1.389.748.748,0,0,0,.429.2c.224,0,.379-.164.465-.525h.207V3.813h-.259C45.542,1.922,45.025.362,43.785.362c-.861,0-1.016.822-1.016,1.381,0,1.122.807,1.906,1.681,2.755,1.033,1,2.16,2.1,2.16,3.949,0,1.743-1,3.008-2.532,3.008Z" transform="translate(-31.143 0)" fill="#262626"/>
          <path id="Path_1531" data-name="Path 1531" d="M.844,1.787C.62.816.568.652.241.57L0,.5V.274H3.048V.5L2.79.553c-.55.115-.5.641-.343,1.348l1.36,6.443,1-5.128L4.444,1.457c-.138-.624-.19-.821-.534-.9L3.686.5V.274H6.838V.5L6.459.57c-.568.1-.481.69-.344,1.331L7.424,8.344l1.292-6.1C8.957.981,8.836.668,8.319.57L7.959.5V.274h2.187V.5L9.9.587C9.561.7,9.474,1.015,9.233,2.1l-2.1,9.564H6.684L5.064,4.2,3.6,11.665H3.031L.844,1.786Z" transform="translate(0 -0.209)" fill="#262626"/>
          <path id="Path_1532" data-name="Path 1532" d="M66.01,11.664c1.43,0,2.359-.92,2.359-2.679V1.293c0-.46.121-.608.465-.69l.379-.1V.274H65.82V.5l.43.1c.379.082.534.213.534.674v7.97c0,.888,0,2.054-.965,2.054-.55,0-.981-.459-.946-.771.015-.225.2-.344.415-.478a1.013,1.013,0,0,0,.6-.822.766.766,0,0,0-.706-.887,1.143,1.143,0,0,0-1.206,1.216,1.99,1.99,0,0,0,2.033,2.1" transform="translate(-47.977 -0.209)" fill="#262626"/>
        </g>
      </g>
    </g>
  </g>
</svg>