<svg xmlns="http://www.w3.org/2000/svg" width="20" height="20" viewBox="0 0 20 20">
  <g id="twitter" transform="translate(-1689 -338)">
    <rect id="Rectangle_4" data-name="Rectangle 4" width="20" height="20" transform="translate(1689 338)" fill="none"/>
    <path id="Icon_metro-twitter" data-name="Icon metro-twitter" d="M18.571,6.305a6.74,6.74,0,0,1-1.885.5,3.2,3.2,0,0,0,1.443-1.756,6.71,6.71,0,0,1-2.085.77,3.332,3.332,0,0,0-2.4-1,3.23,3.23,0,0,0-3.283,3.174,3.085,3.085,0,0,0,.085.723A9.429,9.429,0,0,1,3.685,5.4a3.079,3.079,0,0,0-.444,1.6A3.146,3.146,0,0,0,4.7,9.635a3.355,3.355,0,0,1-1.487-.4c0,.013,0,.027,0,.04A3.2,3.2,0,0,0,5.846,12.39a3.4,3.4,0,0,1-1.482.054,3.274,3.274,0,0,0,3.066,2.2,6.731,6.731,0,0,1-4.077,1.359,6.884,6.884,0,0,1-.783-.044A9.524,9.524,0,0,0,7.6,17.389a9.115,9.115,0,0,0,9.34-9.03q0-.206-.01-.411a6.55,6.55,0,0,0,1.638-1.643Z" transform="translate(1688.429 337.183)" fill="#737373"/>
  </g>
</svg>
