<svg xmlns="http://www.w3.org/2000/svg" xmlns:xlink="http://www.w3.org/1999/xlink" width="172" height="25" viewBox="0 0 172 25">
  <defs>
    <clipPath id="clip-path">
      <path id="Path_64" data-name="Path 64" d="M.112,7.7S1.673-.238,10.779.006c8.976.24,10.544,7.722,9.5,9.133-.869,1.179,3.349,3.68,2.772,4.566-.341.524-1.027-.054-1.452.721-.4.721,1.523.776.756,1.47l-.636.531.715.592c.251.32-.451,1.123-.451,1.123-.377.462.537.415.263,1.475-.3,1.172-1.272.854-2.378,1.031-1.534.246-2.626.268-3.023,1.109S15.531,25,15.531,25H5.763s1.452-3.845.4-4.927S.971,14.972.484,13.344A15.251,15.251,0,0,1,.112,7.7Z" transform="translate(0 0)" fill="#004161"/>
    </clipPath>
  </defs>
  <g id="Βηματοδότης_Logo" transform="translate(-25 -2132)">
    <g id="Group_93" data-name="Group 93" transform="translate(55.395 2138.659)">
      <path id="Path_55" data-name="Path 55" d="M179.778,15.245c.222-1.788-.741-2.884-3.109-3.6l-2.418-.763c-1.48-.452-1.851-1.263-1.826-2a2.086,2.086,0,0,1,2.295-1.668c1.9.048,3.282.953,3.529,2.931h.617l-.025-3.551h-.592l-.3.644a6.652,6.652,0,0,0-3.282-.763c-2.37-.048-4.54,1.073-4.738,3.432-.1,1.668.789,3.051,3.159,3.885l1.9.644c1.357.477,2.393.692,2.369,1.74,0,.858-.889,1.549-2.912,1.526a4.875,4.875,0,0,1-4.021-2.145l-.666.619a5.837,5.837,0,0,0,4.712,2.336,8.9,8.9,0,0,0,3.159-.477,3.1,3.1,0,0,0,2.146-2.789Zm-9.67,2.979v-.5c-1.11-.119-1.505-.573-1.505-1.668V10.882c0-2.932-.814-4.338-3.134-4.385a4.157,4.157,0,0,0-4,2.36l-.37-2.384a36.471,36.471,0,0,1-4.392.905v.5a2.851,2.851,0,0,0,.443.048c.963.143,1.135.573,1.135,1.716v6.221c0,1.24-.3,1.716-1.578,1.859v.5h6.217v-.5c-1.135-.095-1.382-.6-1.382-1.859V10.6c.493-1.336,1.407-2.312,2.221-2.384,1.258-.1,1.6.763,1.6,2.455v6.1c0,.977.494,1.453,1.579,1.453h3.16ZM156.217,7.856V6.807h-9.3V7.856h2.937v7.6c0,2.049.864,3.027,2.714,3.027a4.227,4.227,0,0,0,3.455-1.811l-.469-.429a2.108,2.108,0,0,1-1.382.619c-.79,0-1.061-.548-1.061-1.716V7.856Zm-12.386,5.1c0,3.218-.666,4.767-2.418,4.767s-2.665-2-2.665-5.6c0-3.241.716-4.862,2.393-4.862S143.83,9.238,143.83,12.956Zm3.454-.525A5.606,5.606,0,0,0,141.363,6.5a5.814,5.814,0,0,0-6.07,6.03,5.684,5.684,0,0,0,5.922,5.982A5.747,5.747,0,0,0,147.284,12.431Zm-4.318-9.748a1.679,1.679,0,0,0-3.355,0A1.651,1.651,0,0,0,141.288,4.3,1.623,1.623,0,0,0,142.966,2.684ZM131.3,13.433c0,2.908-.74,4.29-2.393,4.29s-2.69-1.788-2.69-5.077c0-2.6.592-4.195,2.294-4.552.345.238.765.5,1.16.763a3.352,3.352,0,0,1,1.308,1.955,9.855,9.855,0,0,1,.32,2.622Zm3.431-.475c0-2.5-1.11-3.862-3.331-5.2-2.146-1.286-4.614-2.049-4.787-3.647-.149-1.478.913-2.026,2.245-1.955,1.53.071,1.629.882,1.679,1.621a1.349,1.349,0,0,0,1.432,1.382,1.232,1.232,0,0,0,1.357-1.24c.025-1.049-.789-2.479-4.466-2.574-1.924-.048-4.441.5-4.417,2.622,0,1.407.987,2.169,3.184,3.551-3.036.62-4.886,2.645-4.886,5.53,0,3.194,2.715,5.458,5.972,5.458s6.02-2.24,6.02-5.553Zm-15.987,0c0,3.218-.666,4.767-2.418,4.767s-2.665-2-2.665-5.6c0-3.241.716-4.862,2.393-4.862S118.74,9.238,118.74,12.956Zm3.454-.525A5.606,5.606,0,0,0,116.272,6.5a5.814,5.814,0,0,0-6.07,6.03,5.684,5.684,0,0,0,5.922,5.982A5.747,5.747,0,0,0,122.194,12.431ZM110.6,7.855V6.806h-9.3V7.855h2.937v7.6c0,2.049.863,3.027,2.714,3.027a4.226,4.226,0,0,0,3.455-1.811l-.469-.429a2.1,2.1,0,0,1-1.382.619c-.789,0-1.061-.548-1.061-1.716V7.855Z" transform="translate(-38.204 -0.577)" fill="#fff"/>
      <path id="Path_56" data-name="Path 56" d="M.732,18.626a.447.447,0,0,1-.447-.447v-.533a1.254,1.254,0,0,1,.886-1.237c.059-.027.114-.052.164-.079l.01-.005.095-.046c.252-.123.32-.161.352-.228a3.294,3.294,0,0,0,.091-1V4.174a3.3,3.3,0,0,0-.091-1c-.032-.066-.1-.1-.352-.227L1.346,2.9,1.336,2.9c-.05-.026-.105-.052-.164-.078A1.255,1.255,0,0,1,.285,1.581V1.12A.447.447,0,0,1,.732.673H9.143a5.83,5.83,0,0,1,3.965,1.28,4.422,4.422,0,0,1,1.4,3.407A3.764,3.764,0,0,1,13.5,8.1a3.88,3.88,0,0,1-.93.689,5.932,5.932,0,0,1,1.765,1.434,4.662,4.662,0,0,1,1.009,3.009,5.371,5.371,0,0,1-1.293,3.52,5.088,5.088,0,0,1-1.889,1.331A7.488,7.488,0,0,1,9.29,18.6c-.121,0-.305,0-.539-.008-.4-.007-.947-.017-1.551-.017-.476,0-1-.006-1.516-.012-.528-.006-1.075-.012-1.583-.012-1.3,0-3.333.071-3.354.072Zm1.014-1.5c-.07.037-.138.068-.2.1-.306.14-.364.174-.364.424v.072c.684-.021,1.986-.058,2.923-.058.513,0,1.062.006,1.593.013s1.035.012,1.505.012c.612,0,1.164.01,1.567.017.229,0,.41.007.523.007,3.809,0,5.161-2.409,5.161-4.473,0-1.845-.985-3.132-3.1-4.05a.447.447,0,0,1,0-.818l.183-.078a2.853,2.853,0,0,0,2.083-2.93c0-2.411-1.63-3.793-4.472-3.793H1.178v.014c0,.252.058.286.364.426.066.03.133.061.2.1l.085.042a1.4,1.4,0,0,1,.764.638,3.322,3.322,0,0,1,.182,1.391v10.88a3.319,3.319,0,0,1-.182,1.39,1.4,1.4,0,0,1-.763.638Zm62.707,1.453H57.837a.447.447,0,0,1-.447-.447V17.5a1.049,1.049,0,0,1,.815-1.09h.006c.232-.049.464-.107.526-.216.029-.051.08-.217-.069-.658v0l-.244-.738H53.962l-.222.726,0,.013a2.332,2.332,0,0,0-.148.729.206.206,0,0,0,.014.1,1.113,1.113,0,0,0,.368.1l.113.02h.007a1.161,1.161,0,0,1,1,1.093v.558a.447.447,0,0,1-.447.447H49.328a.447.447,0,0,0-.445,0H42.809a.447.447,0,0,1-.447-.447v-.678a1.029,1.029,0,0,1,.9-1.115l.026,0c.211-.031.261-.09.294-.147a1.674,1.674,0,0,0,.042-1.018L42.445,7.252l-2.736,7.136a.447.447,0,0,1-.829.012l-2.909-7L34.742,15.19a3.161,3.161,0,0,0-.061,1.083,1.051,1.051,0,0,0,.216.059,1.129,1.129,0,0,1,1.031,1.118v.678a.447.447,0,0,1-.447.447H30.587a.445.445,0,0,1-.221-.058.445.445,0,0,1-.221.058H23.628a.447.447,0,0,1-.447-.447v-.678c0-.37.154-1.014,1.185-1.168.291-.057.439-.454.439-1.182V9.489H20.09V15.1c0,1.095.345,1.162.463,1.182,1.048.167,1.161.872,1.161,1.168v.678a.447.447,0,0,1-.447.447H14.749a.447.447,0,0,1-.447-.447v-.678c0-.37.154-1.014,1.185-1.168.291-.057.439-.454.439-1.182V4.124c0-.728-.148-1.126-.439-1.182-1.031-.154-1.185-.8-1.185-1.168V1.1a.447.447,0,0,1,.447-.447h6.518a.447.447,0,0,1,.447.447v.678c0,.3-.113,1-1.161,1.168-.118.02-.463.088-.463,1.182V6.73H24.8V4.124c0-.728-.148-1.126-.439-1.182-1.031-.154-1.185-.8-1.185-1.168V1.1a.447.447,0,0,1,.447-.447h6.518a.447.447,0,0,1,.447.447v.678c0,.3-.113,1-1.161,1.168-.118.02-.463.087-.463,1.182V15.1c0,1.1.345,1.162.463,1.182a1.386,1.386,0,0,1,.947.5,1.3,1.3,0,0,1,.8-.45c.386-.068.5-.089.693-1.278l1.72-10.83a2.708,2.708,0,0,0,.039-.883c-.018-.074-.03-.083-.1-.107C32.685,2.922,32.24,2.508,32.208,2L32.021,1.2a.447.447,0,0,1,.435-.548h4.353a1.444,1.444,0,0,0,.524-.057.447.447,0,0,1,.53.265l2.158,5.366L42.074.863a.447.447,0,0,1,.533-.272,1.581,1.581,0,0,0,.549.057h4.055a.447.447,0,0,1,.438.535l-.172.848,0,.015a1.369,1.369,0,0,1-.814.981c-.3.139-.6.358-.459,1.194v.007l1.6,10.807c.177,1.2.344,1.238.62,1.3l.011,0a1.222,1.222,0,0,1,.687.433,1.09,1.09,0,0,1,.548-.356l.023-.006c.684-.169.94-.232,1.251-1.335l0-.009,2.975-9.741c.27-.891.178-1.126.157-1.164s-.157-.079-.285-.113a1.225,1.225,0,0,1-1.036-.939l-.1-.409a.447.447,0,0,1,.3-.53L58.908.305a.447.447,0,0,1,.561.3l.147.483a1.042,1.042,0,0,1-.432,1.295.672.672,0,0,0-.323.438,3.763,3.763,0,0,0,.331,1.762v0L63,15.463a1.17,1.17,0,0,0,1.063.872l.031.007a1.043,1.043,0,0,1,.8,1.11v.678A.447.447,0,0,1,64.453,18.577Zm-6.169-.893h5.722v-.232c0-.2-.042-.221-.12-.242a2.046,2.046,0,0,1-1.724-1.45L58.351,4.881a4.377,4.377,0,0,1-.366-2.242,1.53,1.53,0,0,1,.652-.966.875.875,0,0,0,.156-.137.4.4,0,0,0-.03-.186v0l-.016-.054L53.621,2.9v.006c.039.167.083.2.394.28a1.2,1.2,0,0,1,.837.541,2.426,2.426,0,0,1-.082,1.86L51.8,15.324c-.42,1.485-.992,1.731-1.883,1.952-.088.027-.14.051-.14.248v.159h4.419v-.111c0-.077-.106-.181-.278-.216l-.1-.017a1.826,1.826,0,0,1-.673-.211.954.954,0,0,1-.452-.865,3.226,3.226,0,0,1,.194-1.01l.317-1.035a.447.447,0,0,1,.427-.316h5.115a.447.447,0,0,1,.4.244.484.484,0,0,1,.027.065l.344,1.04a1.666,1.666,0,0,1,0,1.385,1.551,1.551,0,0,1-1.113.647c-.04.009-.117.031-.117.219Zm-15.029,0h5.181v-.232c0-.1,0-.184-.228-.245-.787-.187-1.089-.666-1.292-2.04l-1.6-10.8a1.792,1.792,0,0,1,.965-2.145l0,0a.49.49,0,0,0,.315-.369l.062-.3H43.155c-.154,0-.267,0-.381-.011L40.449,7.6a.447.447,0,0,1-.831.007l-2.445-6.08c-.106.01-.211.01-.363.01H33.018l.07.3a.447.447,0,0,1,.012.1c.006.04.149.235.741.453.808.3.755,1.133.631,1.963v0L32.75,15.2c-.2,1.235-.4,1.837-1.421,2.017-.175.03-.3.128-.3.238v.232h4v-.232c0-.058,0-.192-.286-.237l-.022,0a1.04,1.04,0,0,1-.883-.628,3.3,3.3,0,0,1,.015-1.519v-.008L35.335,5.7a.447.447,0,0,1,.853-.1l3.087,7.425,2.944-7.68a.447.447,0,0,1,.859.094l1.427,9.6a2.446,2.446,0,0,1-.155,1.6,1.227,1.227,0,0,1-.921.578.3.3,0,0,0-.151.061.377.377,0,0,0-.023.177Zm-19.181,0H29.7v-.232c0-.077,0-.221-.41-.286h-.006a1.286,1.286,0,0,1-.952-.712,2.958,2.958,0,0,1-.255-1.351V4.124a2.959,2.959,0,0,1,.255-1.352,1.286,1.286,0,0,1,.952-.711h.006c.41-.065.41-.209.41-.286V1.542H24.074v.232c0,.094,0,.223.43.285l.014,0a1.266,1.266,0,0,1,.929.715,3.005,3.005,0,0,1,.25,1.348V7.177a.447.447,0,0,1-.447.447H19.643a.447.447,0,0,1-.447-.447V4.124a2.958,2.958,0,0,1,.255-1.352,1.286,1.286,0,0,1,.952-.711h.006c.41-.065.41-.209.41-.286V1.542H15.2v.232c0,.094,0,.223.43.285l.014,0a1.266,1.266,0,0,1,.929.715,3.005,3.005,0,0,1,.25,1.348V15.1a3.005,3.005,0,0,1-.25,1.348,1.266,1.266,0,0,1-.929.715l-.014,0c-.43.063-.43.192-.43.285v.232H20.82v-.232c0-.077,0-.221-.41-.286H20.4a1.286,1.286,0,0,1-.952-.712A2.958,2.958,0,0,1,19.2,15.1V9.042a.447.447,0,0,1,.447-.447h5.608a.447.447,0,0,1,.447.447V15.1a3.005,3.005,0,0,1-.25,1.348,1.266,1.266,0,0,1-.929.715l-.014,0a.663.663,0,0,0-.391.142c-.013.014-.039.042-.039.143Zm-16.186-1H5.576a.447.447,0,0,1-.447-.447v-6.3a.447.447,0,0,1,.447-.447H8.257a3.552,3.552,0,0,1,2.623,1.023,3.635,3.635,0,0,1,.972,2.6q0,.018,0,.036a3.292,3.292,0,0,1-1.317,2.691A4.443,4.443,0,0,1,7.888,16.686Zm-1.865-.893H7.888a2.788,2.788,0,0,0,3.07-2.679q0-.016,0-.032a2.541,2.541,0,0,0-2.7-2.7H6.023Zm52.135-2.741H54.149a.447.447,0,0,1-.428-.574L55.615,6.1a.447.447,0,0,1,.852-.013l2.115,6.373a.447.447,0,0,1-.424.587Zm-3.41-.893h2.792L56.066,7.721ZM7.175,8.52H5.551A.447.447,0,0,1,5.1,8.074V2.985a.447.447,0,0,1,.447-.447H7.372a4.781,4.781,0,0,1,3.368.927,2.336,2.336,0,0,1,.669,1.8A2.893,2.893,0,0,1,9.573,8.134,6.228,6.228,0,0,1,7.175,8.52ZM6,7.627H7.175c1.434,0,3.34-.245,3.34-2.365a1.478,1.478,0,0,0-.394-1.153,4.084,4.084,0,0,0-2.749-.678H6Z" transform="translate(-0.285 -0.285)" fill="#fff"/>
    </g>
    <g id="Group_840" data-name="Group 840" transform="translate(25 2132)">
      <path id="Path_57" data-name="Path 57" d="M.112,7.7S1.673-.238,10.779.006c8.976.24,10.544,7.722,9.5,9.133-.869,1.179,3.349,3.68,2.772,4.566-.341.524-1.027-.054-1.452.721-.4.721,1.523.776.756,1.47l-.636.531.715.592c.251.32-.451,1.123-.451,1.123-.377.462.537.415.263,1.475-.3,1.172-1.272.854-2.378,1.031-1.534.246-2.626.268-3.023,1.109S15.531,25,15.531,25H5.763s1.452-3.845.4-4.927S.971,14.972.484,13.344A15.251,15.251,0,0,1,.112,7.7Z" transform="translate(0 0)" fill="#004161"/>
      <g id="Mask_Group_1" data-name="Mask Group 1" clip-path="url(#clip-path)">
        <g id="Group_839" data-name="Group 839" transform="translate(0 2.53)">
          <g id="Group_838" data-name="Group 838" transform="translate(0.536 10.746)">
            <path id="Path_58" data-name="Path 58" d="M22.61,86.752H.043v-.193H22.61Z" transform="translate(-0.043 -86.559)" fill="#fff"/>
          </g>
          <path id="Path_59" data-name="Path 59" d="M29.423,24.333H8.949v-.1H29.423Zm-.288-.926H8.949v-.1H29.135Zm.337-.926H9v-.1h4.1a5.706,5.706,0,0,1,.485-2.263A5.91,5.91,0,0,1,14.9,18.234a6.172,6.172,0,0,1,1.962-1.272,6.422,6.422,0,0,1,4.806,0,6.174,6.174,0,0,1,1.963,1.273,5.911,5.911,0,0,1,1.323,1.887,5.7,5.7,0,0,1,.485,2.263h4.027Zm-16.275-.1H25.344a5.971,5.971,0,0,0-6.074-5.793A5.97,5.97,0,0,0,13.2,22.385Z" transform="translate(-8.918 -16.495)" fill="#fff"/>
          <rect id="Rectangle_600" data-name="Rectangle 600" width="22.722" height="0.153" transform="translate(0 9.167)" fill="#fff"/>
          <rect id="Rectangle_601" data-name="Rectangle 601" width="22.722" height="0.153" transform="translate(0 12.378)" fill="#fff"/>
        </g>
      </g>
    </g>
  </g>
</svg>
