<svg xmlns="http://www.w3.org/2000/svg" width="361" height="53" viewBox="0 0 361 53">
  <g id="Group_1094" data-name="Group 1094" transform="translate(-631.207 -285.755)">
    <path id="Path_55" data-name="Path 55" d="M149.349,53.471,148.27,51.99a10.6,10.6,0,0,1-5.807,2.3c-4.645-.082-5.143-5.02-5.143-8.641V22.939h10.867l.415-2.963H137.321V11.5l-4.4,1.317c-.83,4.938-2.24,8.065-7.88,8.065l-.747,2.057h6.055c0,8.394,0,16.789.083,25.183.083,5.267,1.327,10.781,7.715,10.781,3.484,0,8.627-3.127,11.2-5.514Zm36.665-15.225c0-9.876-6.056-19.175-16.756-19.175-11.945,0-20.489,9.464-20.489,21.15,0,9.711,6.138,18.764,16.756,18.764A20.487,20.487,0,0,0,186.014,38.246Zm-6.8,4.444c0,7.489-2.655,12.591-10.95,12.591-9.457,0-12.941-12.427-12.858-19.916,0-6.337,4.065-12.509,10.95-12.509C175.81,22.775,179.211,35.119,179.211,42.691ZM223.176,22.2V19.977h-10.12v2.14c1.41-.082,2.074.658,2.074,2.057.083,3.95-8.378,25.924-9.042,27.9-.913-2.3-9.54-23.372-9.622-27.652,0-1.564.747-2.387,2.24-2.3v-2.14H184.852v2.14c3.733,0,4.894,5.185,5.89,7.983l2.489,7.16,7.383,20.9h6.221l7.963-20.9c.829-2.222,1.576-4.444,2.406-6.666C218.116,27.959,219.609,22.2,223.176,22.2Zm13.272-11.6a4.687,4.687,0,0,0-9.374,0,4.561,4.561,0,0,0,4.811,4.609A4.712,4.712,0,0,0,236.449,10.595Zm2.24,47.568v-2.14A2.986,2.986,0,0,1,236.2,55.2c-1.576-2.057-1.161-12.262-1.161-14.731V19.154l-10.2,1.893v2.3c4.231-.658,3.733,8.723,3.733,11.275l-.083,6.255c0,2.387.415,12.509-1.078,14.4a3.071,3.071,0,0,1-2.572.823v2.057Zm64.952,0v-2.14a3.238,3.238,0,0,1-2.323-.658c-1.825-1.811-1.327-12.509-1.327-14.9v-6.5c0-7.983.249-14.649-9.954-14.649-4.562,0-11.281,4.033-14.1,7.571-.664-5.843-3.9-7.736-9.457-7.654-4.562,0-10.535,3.786-13.438,7.242l-.083-7.324-10.2,1.893v2.3c4.231-.658,3.733,8.723,3.733,11.275L246.4,40.88c0,2.3.415,12.921-1.327,14.649a4.685,4.685,0,0,1-2.406.494l.083,2.14h13.853v-2.14a3.238,3.238,0,0,1-2.323-.658c-1.742-1.728-1.327-10.781-1.327-13V33.638a9.155,9.155,0,0,1,9.374-9.217c7.549,0,7.715,4.773,7.632,10.781l-.083,5.679c0,2.3.5,12.838-1.327,14.567a3.886,3.886,0,0,1-2.406.576l.083,2.14h13.853v-2.14a3.238,3.238,0,0,1-2.323-.658c-1.742-1.728-1.244-10.781-1.244-13l-.083-8.724a9.176,9.176,0,0,1,9.457-9.217c7.549,0,7.715,4.773,7.632,10.781l-.083,5.679c0,2.3.5,12.756-1.41,14.484a3.238,3.238,0,0,1-2.323.658l.083,2.14ZM339.309,56.6l-.5-1.893a6.275,6.275,0,0,1-2.157.411c-2.737,0-2.737-4.115-2.737-6.008v-15.8c0-8.477-3.9-14.32-13.024-14.32-3.567,0-10.452,5.1-12.941,7.736l1.659,1.893c2.157-1.728,6.056-4.279,8.876-4.279,5.973,0,8.876,3.621,8.876,9.382V35.7c-7.466,1.152-22.48,4.033-22.48,13.744,0,5.925,4.645,9.464,10.452,9.464,3.318,0,10.2-4.691,12.277-7.324,0,3.21-.332,7.242,4.148,7.324C334.332,58.9,336.9,57.669,339.309,56.6Zm-11.7-14.073c0,1.317,0,5.267-.5,6.337-1.244,2.387-5.724,5.02-8.627,5.02a6.013,6.013,0,0,1-5.973-6.09c.083-7.324,9.374-8.888,15.014-9.876C327.613,39.481,327.613,41.045,327.613,42.526Z" transform="translate(506.91 279.769)" fill="#262626"/>
    <path id="Path_56" data-name="Path 56" d="M321.35,51.96l-.083.083a5.475,5.475,0,0,0-10.95.083,5.517,5.517,0,0,0,11.033-.166Zm32.517-1.991-1-1.41c-2.323,1.825-6.387,3.816-9.457,3.816-9.208,0-14.268-8.129-14.268-16.673,0-5.806,1.742-14.6,9.125-14.6,4.314,0,8.876,2.737,11.53,6.138l3.9-5.475a14.655,14.655,0,0,0-10.95-4.562c-11.945,0-20.489,9.705-20.489,21.4,0,10.286,6.968,18.83,17.669,18.83C343.747,57.435,350.964,52.541,353.867,49.969Zm38.324-13.355c0-9.954-6.055-19.327-16.756-19.327-11.945,0-20.489,9.539-20.489,21.318,0,9.788,6.138,18.913,16.756,18.913A20.571,20.571,0,0,0,392.191,36.614Zm-6.8,4.479c0,7.548-2.654,12.691-10.95,12.691-9.457,0-12.941-12.525-12.858-20.074,0-6.387,4.065-12.608,10.95-12.608C381.988,21.02,385.389,33.462,385.389,41.094Zm69.182,15.595V54.531a3.22,3.22,0,0,1-2.323-.664c-1.825-1.825-1.327-12.608-1.327-15.014V32.3c0-8.046.249-14.765-9.954-14.765-4.562,0-11.281,4.065-14.1,7.631-.664-5.889-3.9-7.8-9.457-7.714-4.562,0-10.535,3.816-13.438,7.3l-.083-7.383-10.2,1.908V21.6c4.231-.664,3.733,8.793,3.733,11.364l-.083,6.3c0,2.323.415,13.023-1.327,14.765a4.654,4.654,0,0,1-2.406.5l.083,2.157h13.853V54.531a3.219,3.219,0,0,1-2.323-.664c-1.742-1.742-1.327-10.866-1.327-13.106V31.969a9.19,9.19,0,0,1,9.374-9.29c7.549,0,7.715,4.811,7.632,10.866l-.083,5.724c0,2.323.5,12.94-1.327,14.682a3.861,3.861,0,0,1-2.406.581l.083,2.157h13.853V54.531a3.219,3.219,0,0,1-2.323-.664c-1.742-1.742-1.244-10.866-1.244-13.106l-.083-8.793a9.21,9.21,0,0,1,9.457-9.29c7.549,0,7.715,4.811,7.632,10.866l-.083,5.724c0,2.323.5,12.857-1.41,14.6a3.219,3.219,0,0,1-2.323.664l.083,2.157Z" transform="translate(537.636 281.237)" fill="#262626" opacity="0.6"/>
  </g>
</svg>