    <svg xmlns="http://www.w3.org/2000/svg" xmlns:xlink="http://www.w3.org/1999/xlink" width="305" height="67" viewBox="0 0 305 67">
  <defs>
    <clipPath id="clip-path">
      <rect id="Rectangle_1" data-name="Rectangle 1" width="305" height="67" fill="none"/>
    </clipPath>
  </defs>
  <g id="Group_13" data-name="Group 13" transform="translate(0 0)">
    <g id="Group_1" data-name="Group 1" transform="translate(0 0.001)" clip-path="url(#clip-path)">
      <path id="Path_1" data-name="Path 1" d="M274.083,0a5.127,5.127,0,0,1,5,5,5,5,0,0,1-10,0,5.127,5.127,0,0,1,5-5" transform="translate(-42.711 1.284)" fill="#e50019"/>
      <path id="Path_2" data-name="Path 2" d="M18.124,53.513c-.677,0-2.4-.051-4.427-.051s-4.427-.052-6.562-.052c-2.812,0-7.135.155-7.135.155V52.432c0-1.391.937-1.547,1.719-1.959,1.354-.67,1.667-.67,1.667-3.556V23.778c0-2.886-.312-2.886-1.667-3.556C.937,19.81,0,19.655,0,18.264v-.979H17.811c6.822,0,10.415,3.659,10.415,9.018,0,5.411-3.854,6.6-5.364,7.266C27.237,35.477,30,38.311,30,43.052c0,4.329-2.708,10.461-11.874,10.461M14.061,21.253H10.207V32.075h3.437c1.874,0,8.021,0,8.021-5.977,0-1.907-.469-4.845-7.6-4.845m1.875,14.791H10.259v13.4h4.9c3.49,0,7.448-2.062,7.448-6.649,0-3.968-2.552-6.751-6.666-6.751" transform="translate(0 -2.896)" fill="#fff"/>
      <path id="Path_3" data-name="Path 3" d="M63.276,47.01c0,2.113.573,3.247,1.771,3.453,1.3.206,1.667.876,1.667,1.546v1.443h-13.8V52.01c0-.67.312-1.34,1.719-1.546,1.146-.206,1.719-1.34,1.719-3.453V34.127H44.475V47.01c0,2.113.574,3.247,1.771,3.453,1.3.206,1.667.876,1.667,1.546v1.443h-13.8V52.01c0-.67.311-1.34,1.718-1.546,1.146-.206,1.719-1.34,1.719-3.453V23.665c0-2.113-.573-3.246-1.719-3.452-1.407-.206-1.718-.877-1.718-1.547V17.223h13.8v1.443c0,.67-.364,1.34-1.667,1.547-1.2.206-1.771,1.339-1.771,3.452v6.493H56.349V23.665c0-2.113-.573-3.246-1.719-3.452-1.407-.206-1.719-.877-1.719-1.547V17.223h13.8v1.443c0,.67-.365,1.34-1.667,1.547-1.2.206-1.771,1.339-1.771,3.452Z" transform="translate(-5.415 -2.885)" fill="#fff"/>
      <path id="Path_4" data-name="Path 4" d="M109.251,17.192l-.364,1.8a1.974,1.974,0,0,1-1.2,1.443c-.989.465-1.874,1.34-1.51,3.556l3.385,22.984c.416,2.835.937,3.3,2.031,3.556a1.4,1.4,0,0,1,1.2,1.443v1.444H99.928V51.978a1.256,1.256,0,0,1,1.146-1.443c1.041-.155,1.927-.721,1.51-3.556l-3.02-20.408L92.481,45.125,85.034,27.138,81.909,47.032c-.416,2.989-.156,3.246,1.094,3.5a1.454,1.454,0,0,1,1.407,1.443v1.444H74.045V51.978a1.539,1.539,0,0,1,1.407-1.443c1.458-.258,1.823-.877,2.239-3.5l3.645-23.037c.312-2.113.1-2.835-.729-3.143S78.42,19.923,78.42,19L78,17.192h9.219a3.9,3.9,0,0,0,1.354-.155l5.468,13.658,5.207-13.658a4.21,4.21,0,0,0,1.407.155Z" transform="translate(-11.753 -2.854)" fill="#fff"/>
      <path id="Path_5" data-name="Path 5" d="M131.2,45.257l-.676,2.216a5.994,5.994,0,0,0-.365,1.856c0,1.185.989,1.236,1.823,1.39a1.536,1.536,0,0,1,1.354,1.392V53.3H122.087V52.008a1.325,1.325,0,0,1,.989-1.443c1.667-.412,2.552-.721,3.333-3.5l6.3-20.717c1.667-5.514-1.875-2.731-2.448-5.206l-.209-.875,12.6-3.969.312,1.03c.833,2.681-3.385.515-.886,7.473l8.073,23.139a3.4,3.4,0,0,0,2.968,2.473,1.3,1.3,0,0,1,.99,1.444V53.3h-14.01V51.957a1.3,1.3,0,0,1,.99-1.392c1.2-.258,2.5-.618,1.666-3.092l-.729-2.216Zm9.583-3.71L136.3,27.993l-4.01,13.554Z" transform="translate(-19.379 -2.73)" fill="#fff"/>
      <path id="Path_6" data-name="Path 6" d="M175.968,17.646a11.171,11.171,0,0,1,7.184,2.539,3.618,3.618,0,0,1-.056-.847,6.877,6.877,0,0,1,.969-3.526,4.247,4.247,0,0,1,3.479-2.257c1.825,0,3.992,1.552,3.992,4.725,0,2.257-1.369,3.668-2.795,3.668a2.475,2.475,0,0,1-1.71-.847c-.513-.564-.912-.846-1.255-.846a3.633,3.633,0,0,1-.456.141.61.61,0,0,0-.114.353c0,.211.114.775.285,1.692a12.458,12.458,0,0,1,3.251,8.463c0,8.534-5.018,13.471-13.058,13.471a12.057,12.057,0,0,1-4.048-.494c-.057.071-.342.423-.855,1.128C169.24,47.2,168.5,48.4,168.5,48.748c0-.07,1.54-1.34,9.181-1.974,7.583,0,13.115,3.1,13.115,10.719,0,7.264-6.672,11.778-14.94,11.778-7.754,0-12.145-2.681-12.145-7.264a4.51,4.51,0,0,1,4.163-4.584,3.5,3.5,0,0,1,2.965,1.339,3.372,3.372,0,0,1,.741,2.257l-.057.7a7.013,7.013,0,0,0-.57,2.257c0,.847,1.6,1.693,4.619,1.693,3.479,0,7.184-1.974,7.184-5.29,0-2.539-2.509-4.8-6.386-4.867a62.3,62.3,0,0,0-9.124,1.059,10.5,10.5,0,0,1-2,.211c-2.167,0-3.25-.917-3.25-2.68,0-.777.968-2.821,2.965-6.136,1.54-2.468,2.623-4.372,3.478-5.571a10.639,10.639,0,0,1-1.938-1.623c-2.224-2.468-3.364-5.853-3.364-10.086,0-7.686,5.531-13.047,12.83-13.047m-3.821,13.259c0,6.206,1.2,10.014,3.877,10.014,2.452,0,3.707-3.667,3.707-9.591,0-6.206-1.255-10.156-3.707-10.156-2.679,0-3.877,3.526-3.877,9.733" transform="translate(-25.714 -2.271)" fill="#fff"/>
      <path id="Path_7" data-name="Path 7" d="M205.465,54.578c-5.874,0-9.58-4.232-9.58-9.874,0-5.854,3.935-9.38,8.781-11.073a53.721,53.721,0,0,1,8.269-2.327c0-6.206-1.768-9.45-4.562-9.45a2.58,2.58,0,0,0-2.737,2.4l.342,2.539c-.342,2.751-1.71,4.161-4.105,4.161h-.228c-2.51-.141-3.82-1.762-3.878-4.8.058-4.8,4.448-7.687,11.348-7.687,7.812,0,12.887,5.5,12.887,14.175V44.916c0,2.892.4,4.585,1.54,4.585.456,0,1.026-.495,1.425-1.058a4.6,4.6,0,0,1,1.027,2.187,3.7,3.7,0,0,1-.115.7,6.777,6.777,0,0,1-5.3,3.245c-3.479,0-5.247-2.681-6.159-5.29a9.862,9.862,0,0,1-8.952,5.29m7.526-19.748a8.589,8.589,0,0,0-3.534,1.2,8.749,8.749,0,0,0-4.163,7.9c0,3.315,1.311,6.136,3.535,6.136,2.794,0,4.162-4.3,4.162-9.1Z" transform="translate(-31.092 -3.094)" fill="#fff"/>
      <path id="Path_8" data-name="Path 8" d="M235.706,19.654h23.607v3.315l-13.97,26.659h5.075c4.276,0,5.417-1.058,5.816-3.1.456-2.257.343-3.032,3.364-3.032V53.86H234.111V50.827l14.482-26.941h-5.929c-2.339,0-3.251.635-3.649,2.539-.628,1.9-.57,2.539-3.308,2.539Z" transform="translate(-37.16 -3.293)" fill="#fff"/>
      <path id="Path_9" data-name="Path 9" d="M278.97,45.579c0,3.6.4,4.09,1.939,4.443,1.083.211,1.311,1.128,1.311,2.257V53.76H266.711V52.279c0-1.129.228-2.045,1.311-2.257,1.539-.353,1.939-.847,1.939-4.443V27.243c0-2.892-.228-3.527-1.824-3.879-1.313-.493-1.426-.987-1.426-2.468v-1.34l12.259-.494Z" transform="translate(-42.334 -3.193)" fill="#fff"/>
      <path id="Path_10" data-name="Path 10" d="M317.731,45.48c0,3.6.57,4.09,1.939,4.443.969.211,1.253,1.128,1.253,2.257v1.481H305.7V52.18c0-1.129.227-2.045,1.2-2.257,1.426-.423,1.826-.847,1.826-4.443V29.259c0-3.949-1.083-5.854-3.649-5.854a5.827,5.827,0,0,0-4.619,2.468V45.48c0,3.6.512,4.02,2.11,4.443,1.14.211,1.369,1.128,1.369,2.257v1.481H288.2V52.18c0-1.129.228-2.045,1.311-2.257,1.54-.353,1.939-.847,1.939-4.443V27.144c0-2.61-.457-3.527-1.768-3.879-1.083-.211-1.424-1.27-1.424-2.468v-1.34l11.86-.494-.058,3.457a10.081,10.081,0,0,1,8.211-3.949c6.158,0,9.466,3.738,9.466,10.861Z" transform="translate(-45.744 -3.094)" fill="#fff"/>
      <path id="Path_11" data-name="Path 11" d="M341.735,54.578c-8.668,0-15.111-7.83-15.111-18.055s6.443-18.054,15.111-18.054,15.11,7.828,15.11,18.054-6.443,18.055-15.11,18.055m0-32.584c-3.877,0-5.476,5.43-5.476,14.529s1.6,14.528,5.476,14.528c3.706,0,5.472-5.43,5.472-14.528s-1.767-14.529-5.472-14.529" transform="translate(-51.844 -3.094)" fill="#fff"/>
    </g>
  </g>
</svg>