<?xml version="1.0" standalone="no"?>
<!DOCTYPE svg PUBLIC "-//W3C//DTD SVG 20010904//EN"
 "http://www.w3.org/TR/2001/REC-SVG-20010904/DTD/svg10.dtd">
<svg version="1.0" xmlns="http://www.w3.org/2000/svg"
 width="300.000000pt" height="300.000000pt" viewBox="0 0 300.000000 300.000000"
 preserveAspectRatio="xMidYMid meet">
<metadata>
Created by potrace 1.14, written by Peter Selinger 2001-2017
</metadata>
<g transform="translate(0.000000,300.000000) scale(0.100000,-0.100000)"
fill="#000000" stroke="none">
<path d="M658 2575 c-35 -19 -48 -44 -48 -90 0 -54 23 -88 79 -119 90 -48 85
-21 94 -521 11 -652 6 -1122 -13 -1160 -9 -18 -39 -43 -79 -65 -75 -42 -97
-77 -87 -134 9 -47 39 -74 90 -81 23 -4 289 -5 591 -3 526 4 553 5 626 25 242
68 403 212 465 418 24 80 25 264 1 354 -41 152 -145 293 -274 370 l-64 38 51
33 c203 130 289 455 180 677 -55 111 -181 202 -345 250 -54 15 -123 18 -650
20 -510 2 -594 1 -617 -12z m1034 -293 c36 -18 82 -50 101 -71 101 -112 102
-316 2 -417 -67 -66 -104 -74 -357 -74 l-218 0 0 301 0 300 203 -3 203 -3 66
-33z m12 -866 c143 -43 221 -172 219 -361 -1 -114 -27 -189 -91 -257 -89 -95
-201 -128 -444 -128 l-158 0 0 380 0 380 213 0 c157 0 227 -4 261 -14z"/>
</g>
</svg>
