<svg xmlns="http://www.w3.org/2000/svg" xmlns:xlink="http://www.w3.org/1999/xlink" width="184" height="44" viewBox="0 0 184 44">
  <defs>
    <clipPath id="clip-path">
      <rect id="Rectangle_1090" data-name="Rectangle 1090" width="183.692" height="44" fill="none"/>
    </clipPath>
  </defs>
  <g id="B_Cooking" transform="translate(0 0)">
    <g id="Group_1186" data-name="Group 1186" transform="translate(0 0)">
      <rect id="Rectangle_1089" data-name="Rectangle 1089" width="43.803" height="43.542" transform="translate(0 0.229)" fill="#f26127"/>
      <g id="Group_1185" data-name="Group 1185" transform="translate(0.308 0)">
        <g id="Group_1184" data-name="Group 1184" clip-path="url(#clip-path)">
          <path id="Path_1542" data-name="Path 1542" d="M22.918,14.94v7.572h4.7a3.291,3.291,0,0,0,3.524-3.586c0-3.508-3.524-4.054-4.15-4.054s-4.072.068-4.072.068M23,35.686h3.289c1.331,0,5.56-.234,5.56-4.912S28.008,26.1,28.008,26.1H23Zm-6.187,3.39c-.783,0-1.722-.116-1.722-1.364,0-.935.882-1.247,1.352-1.48s1.018-.39,1.018-2.261l-.1-17.3c0-1.871-.549-2.028-1.018-2.261s-1.175-.545-1.175-1.481c0-1.247.94-1.4,1.722-1.4H29.574c1.253,0,7.2.7,7.2,6,0,5.066-3.68,6.391-3.68,6.391s4.7,1.559,4.7,7.485-5.8,7.677-8.536,7.677Z" transform="translate(-4.878 -3.298)" fill="#fff"/>
          <path id="Path_1543" data-name="Path 1543" d="M78.871,26.218c0-7.334,4.489-12.145,11.754-12.145,5.689,0,9.7,3.548,10.315,8.733h-5.21a5.291,5.291,0,0,0-5.38-4.4c-3.907,0-6.237,3.206-6.237,7.812,0,4.571,2.3,7.812,6.169,7.812a5.312,5.312,0,0,0,5.448-4.4h5.175c-.583,5.185-4.729,8.733-10.589,8.733-7.128,0-11.446-4.81-11.446-12.144" transform="translate(-24.202 -4.08)" fill="#f26127"/>
          <path id="Path_1544" data-name="Path 1544" d="M112.647,32.19c0-5.391,3.666-8.973,9.287-8.973s9.287,3.582,9.287,8.973c0,5.423-3.667,8.972-9.287,8.972s-9.287-3.582-9.287-8.972m13.673,0c0-2.968-1.679-5.049-4.387-5.049s-4.352,2.081-4.352,5.049,1.645,5.049,4.352,5.049,4.387-2.081,4.387-5.049" transform="translate(-34.435 -6.879)" fill="#f26127"/>
          <path id="Path_1545" data-name="Path 1545" d="M141.654,32.19c0-5.391,3.666-8.973,9.287-8.973s9.287,3.582,9.287,8.973c0,5.423-3.667,8.972-9.287,8.972s-9.287-3.582-9.287-8.972m13.673,0c0-2.968-1.679-5.049-4.386-5.049s-4.352,2.081-4.352,5.049,1.645,5.049,4.352,5.049,4.386-2.081,4.386-5.049" transform="translate(-43.223 -6.879)" fill="#f26127"/>
          <path id="Path_1546" data-name="Path 1546" d="M171.644,14.368h4.832V28.149l6.888-7.436h5.449l-6.34,6.891,6.683,10.643H183.57l-4.455-7.1-2.639,2.832v4.264h-4.832Z" transform="translate(-52.308 -4.17)" fill="#f26127"/>
          <path id="Path_1547" data-name="Path 1547" d="M197.947,15.72a2.813,2.813,0,1,1,2.81,2.7,2.717,2.717,0,0,1-2.81-2.7m.377,4.571h4.866V37.827h-4.866Z" transform="translate(-60.277 -3.749)" fill="#f26127"/>
          <path id="Path_1548" data-name="Path 1548" d="M226.915,31.234v9.723h-4.832V31.711c0-2.968-1.131-4.537-3.564-4.537-2.5,0-3.941,1.774-3.941,4.811v8.972h-4.832V23.422h4.215l.445,2.184a6.55,6.55,0,0,1,5.449-2.388c3.8,0,7.06,2.014,7.06,8.017" transform="translate(-63.852 -6.879)" fill="#f26127"/>
          <path id="Path_1549" data-name="Path 1549" d="M251.328,23.407h4.249V40.43c0,4.332-2.672,7.539-9.424,7.539-4.9,0-8.259-2.218-8.5-6.277h4.866c.445,1.671,1.782,2.626,4.01,2.626,2.707,0,4.317-1.33,4.317-4.059V38.417a6.521,6.521,0,0,1-5.38,2.422c-4.729.034-8.19-3.411-8.19-8.836,0-5.355,3.461-8.835,8.156-8.835a6.6,6.6,0,0,1,5.483,2.661Zm-.514,8.665c0-2.934-1.645-5.015-4.283-5.015s-4.318,2.048-4.318,4.981,1.679,4.947,4.318,4.947,4.283-2.012,4.283-4.912" transform="translate(-72.193 -6.864)" fill="#f26127"/>
        </g>
      </g>
    </g>
  </g>
</svg>
