<?xml version="1.0" standalone="no"?>
<!DOCTYPE svg PUBLIC "-//W3C//DTD SVG 20010904//EN"
 "http://www.w3.org/TR/2001/REC-SVG-20010904/DTD/svg10.dtd">
<svg version="1.0" xmlns="http://www.w3.org/2000/svg"
 width="600.000000pt" height="600.000000pt" viewBox="0 0 600.000000 600.000000"
 preserveAspectRatio="xMidYMid meet">
<metadata>
Created by potrace 1.14, written by Peter Selinger 2001-2017
</metadata>
<g transform="translate(0.000000,600.000000) scale(0.100000,-0.100000)"
fill="#000000" stroke="none">
<path d="M1020 4871 l0 -109 59 -10 c154 -27 269 -135 371 -347 27 -55 132
-343 236 -645 103 -300 362 -1042 575 -1650 l387 -1105 322 0 323 0 243 645
c617 1632 713 1892 875 2374 105 313 183 467 296 586 65 69 162 130 207 130
12 0 31 3 44 6 21 6 22 11 22 120 l0 114 -525 0 -525 0 0 -109 0 -108 44 -5
c68 -8 117 -38 146 -89 22 -38 25 -56 25 -134 -1 -260 -232 -983 -861 -2697
-38 -103 -72 -184 -76 -180 -15 15 -329 819 -505 1292 -339 909 -495 1430
-481 1605 10 116 62 178 168 198 l60 12 0 107 0 108 -715 0 -715 0 0 -109z"/>
</g>
</svg>
